<?xml version="1.0" encoding="utf-8" standalone="no"?>
<!-- Generated by Therion 6.2.1 (2024-03-20) -->
<!-- Author: Paweł Krawczyk -->
<!-- Title: Ledena pećina u Momče, Montenegro -->
<!DOCTYPE svg PUBLIC "-//W3C//DTD SVG 1.1//EN" "http://www.w3.org/Graphics/SVG/1.1/DTD/svg11.dtd">
<svg width="21.367cm" height="32.480cm" viewBox="-64.492 -58.554 605.693 920.693" xmlns="http://www.w3.org/2000/svg" xmlns:xlink="http://www.w3.org/1999/xlink">
<defs>
<g id="F_aaaaaaa_output/ledena_ext.svg">
<g>
<clipPath id="clip_2_output/ledena_ext.svg">
  <path d="M518.560 -712.600C518.560 -712.600 488.560 -710.200 485.920 -705.880C483.280 -701.560 481.360 -689.560 481.360 -689.560C481.360 -689.560 451.360 -652.600 449.200 -648.040C447.040 -643.480 445.840 -632.680 444.640 -629.080C443.440 -625.480 430.720 -597.160 429.760 -595.240C428.800 -593.320 425.920 -588.040 423.280 -587.080C420.640 -586.120 413.680 -583.000 411.280 -584.680C408.880 -586.360 404.080 -587.320 402.400 -589.960C400.720 -592.600 386.560 -615.400 382.960 -616.360C379.360 -617.320 369.520 -618.760 368.560 -618.760C367.600 -618.760 360.640 -617.080 358.480 -616.120C356.320 -615.160 353.440 -614.440 351.760 -613.480C350.080 -612.520 339.040 -604.840 339.040 -604.840C339.040 -604.840 331.840 -569.320 330.640 -565.480C329.440 -561.640 327.520 -554.200 326.800 -552.760C326.080 -551.320 320.560 -543.880 320.560 -543.880C318.080 -545.320 315.600 -546.760 313.120 -548.200C313.120 -548.200 304.480 -554.680 304.480 -557.080C304.480 -559.480 299.680 -568.600 299.920 -570.520C300.160 -572.440 295.360 -599.080 293.680 -600.520C292.000 -601.960 289.840 -604.120 288.400 -604.600C286.960 -605.080 278.080 -604.120 277.840 -603.160C277.600 -602.200 275.920 -587.080 275.920 -579.400C275.920 -571.720 283.120 -461.800 281.920 -451.720C280.720 -441.640 285.040 -407.560 287.680 -397.960C290.320 -388.360 293.680 -359.560 293.920 -346.360C294.160 -333.160 292.000 -319.480 292.000 -318.520C292.000 -317.560 270.880 -248.920 269.200 -244.120C267.520 -239.320 267.040 -225.880 266.560 -220.600C266.080 -215.320 265.600 -188.440 266.560 -181.960C267.520 -175.480 268.000 -169.000 269.680 -167.560C271.360 -166.120 275.200 -165.640 278.080 -165.880C280.960 -166.120 288.400 -167.320 288.400 -167.320C290.240 -166.440 292.080 -165.560 293.920 -164.680C295.360 -162.680 296.800 -160.680 298.240 -158.680C298.240 -158.680 297.040 -152.440 296.560 -151.720C296.080 -151.000 294.640 -144.040 291.760 -143.800C288.880 -143.560 283.600 -145.240 283.600 -145.240C283.600 -146.840 283.600 -148.440 283.600 -150.040C283.600 -150.040 281.680 -153.160 279.760 -155.080C277.840 -157.000 269.680 -153.400 269.680 -152.200C269.680 -151.000 258.640 -125.320 256.960 -117.880C255.280 -110.440 238.720 -81.400 238.720 -81.400C238.720 -81.400 237.760 -78.520 234.640 -79.480C231.520 -80.440 229.840 -92.920 228.160 -95.560C226.480 -98.200 220.000 -136.120 216.400 -141.640C212.800 -147.160 205.120 -155.320 203.680 -155.560C202.240 -155.800 195.760 -155.320 192.640 -153.640C189.520 -151.960 186.640 -150.760 181.360 -145.720C176.080 -140.680 171.760 -134.920 171.760 -133.240C171.760 -131.560 168.400 -124.840 167.440 -124.120C166.480 -123.400 166.720 -126.760 160.240 -118.840C153.760 -110.920 146.800 -92.440 143.920 -87.160C141.040 -81.880 136.240 -70.600 137.680 -64.840C139.120 -59.080 136.000 -49.720 139.840 -43.240C143.680 -36.760 156.160 -25.240 159.040 -18.280C161.920 -11.320 169.360 -4.360 173.200 0.200C177.040 4.760 184.720 13.400 187.600 16.520C190.480 19.640 195.040 24.200 195.040 24.200C138.400 16.200 81.760 8.200 25.120 0.200C25.120 0.200 47.920 -17.080 48.880 -17.080C49.840 -17.080 64.960 -31.720 65.680 -32.200C66.400 -32.680 75.520 -60.280 77.200 -63.640C78.880 -67.000 81.760 -95.560 83.200 -97.480C84.640 -99.400 97.360 -108.760 98.320 -109.480C99.280 -110.200 104.800 -114.040 105.760 -115.240C106.720 -116.440 108.640 -127.240 108.640 -127.240C108.640 -127.240 122.560 -135.400 124.720 -138.040C126.880 -140.680 142.240 -151.000 142.960 -151.240C143.680 -151.480 150.640 -158.680 154.480 -160.600C158.320 -162.520 164.800 -170.680 166.480 -171.160C168.160 -171.640 173.200 -173.560 173.200 -175.000C173.200 -176.440 173.200 -178.120 173.440 -181.480C173.680 -184.840 186.160 -199.000 189.520 -203.560C192.880 -208.120 197.920 -210.760 197.440 -216.760C196.960 -222.760 194.800 -219.880 196.240 -224.680C197.680 -229.480 202.000 -302.200 202.240 -306.280C202.480 -310.360 202.000 -315.400 202.720 -317.080C203.440 -318.760 213.280 -440.200 213.280 -445.480C213.280 -450.760 213.280 -486.760 214.240 -488.200C215.200 -489.640 216.640 -522.760 218.560 -526.600C220.480 -530.440 223.840 -555.880 224.320 -559.720C224.800 -563.560 224.320 -574.120 221.920 -584.200C219.520 -594.280 220.960 -618.760 220.960 -618.760C220.960 -618.760 221.440 -640.840 219.040 -644.680C219.040 -644.680 219.040 -644.680 219.040 -644.680C222.240 -643.240 225.440 -641.800 228.640 -640.360C228.640 -640.360 232.000 -638.440 239.680 -637.000C247.360 -635.560 258.400 -634.120 258.400 -634.120C258.400 -634.120 270.880 -635.080 274.720 -636.040C278.560 -637.000 281.440 -635.080 289.120 -637.480C296.800 -639.880 304.960 -645.640 304.960 -645.640C304.960 -645.640 304.960 -645.640 304.960 -645.640C304.960 -645.640 310.240 -651.400 308.320 -652.840C306.400 -654.280 303.520 -659.560 303.520 -659.560C303.520 -659.560 298.240 -661.000 291.520 -660.520C284.800 -660.040 283.360 -659.080 281.920 -660.520C280.480 -661.960 274.600 -674.200 274.600 -674.200C274.600 -674.200 274.600 -674.200 274.600 -674.200C274.600 -674.200 273.160 -675.760 268.840 -676.960C269.240 -678.360 269.640 -679.760 270.040 -681.160C270.880 -680.800 277.840 -679.000 280.480 -678.640C283.120 -678.280 286.600 -677.080 291.760 -676.960C296.920 -676.840 302.200 -675.640 305.560 -676.720C308.920 -677.800 319.600 -675.040 320.320 -675.160C321.040 -675.280 325.960 -677.560 328.000 -677.320C330.040 -677.080 332.200 -679.360 333.760 -679.240C335.320 -679.120 336.640 -680.320 336.640 -680.320C336.840 -680.320 337.040 -680.320 337.240 -680.320C337.240 -680.320 342.520 -679.840 343.720 -680.200C343.720 -680.200 343.720 -680.200 343.720 -680.200C343.720 -680.200 347.320 -681.760 348.640 -685.120C349.960 -688.480 352.120 -694.480 352.840 -695.680C353.560 -696.880 356.080 -702.520 356.320 -703.840C356.560 -705.160 360.280 -712.600 360.040 -713.320C360.040 -713.320 360.040 -713.320 360.040 -713.320C362.680 -719.720 365.320 -726.120 367.960 -732.520C367.960 -732.520 368.080 -738.160 368.800 -739.720C369.520 -741.280 376.000 -752.080 376.000 -752.080C376.000 -752.080 376.000 -752.080 376.000 -752.080C376.000 -752.080 389.560 -755.800 391.240 -758.440C392.920 -761.080 396.040 -767.200 396.640 -768.280C397.240 -769.360 396.400 -773.440 400.960 -777.040C405.520 -780.640 406.000 -781.000 407.080 -781.720C408.160 -782.440 423.160 -786.880 428.200 -788.800C433.240 -790.720 439.000 -792.400 440.560 -792.880C442.120 -793.360 443.440 -793.240 445.360 -794.800C447.280 -796.360 452.440 -801.880 454.000 -803.080C455.560 -804.280 462.760 -807.160 466.000 -810.160C469.240 -813.160 474.280 -816.040 474.760 -816.640C475.240 -817.240 483.640 -823.480 484.000 -823.600C484.360 -823.720 490.000 -825.520 490.960 -826.600C491.920 -827.680 496.480 -830.680 496.960 -829.720C496.960 -829.720 496.960 -829.720 496.960 -829.720C496.960 -829.720 498.640 -803.800 497.920 -799.960C497.200 -796.120 495.280 -789.160 498.400 -788.680C501.520 -788.200 502.720 -787.960 501.760 -784.120C500.800 -780.280 497.440 -774.520 500.800 -771.640C504.160 -768.760 504.640 -767.080 504.640 -767.080C504.640 -767.080 501.280 -761.800 502.720 -757.960C504.160 -754.120 505.600 -755.560 507.040 -754.840C508.480 -754.120 506.080 -748.360 507.280 -743.320C508.480 -738.280 511.600 -732.040 511.600 -732.040C511.600 -732.040 511.600 -732.040 511.600 -732.040C511.600 -732.040 510.400 -728.680 519.040 -726.280C527.680 -723.880 533.200 -724.120 533.200 -724.120C533.680 -720.360 534.160 -716.600 534.640 -712.840C534.640 -712.840 520.960 -714.280 518.560 -712.600C518.560 -712.600 518.560 -712.600 518.560 -712.600M-7.760 30.680C3.200 20.520 14.160 10.360 25.120 0.200C24.000 0.200 22.880 0.200 21.760 0.200C19.280 -0.360 16.800 -0.920 14.320 -1.480C13.360 -1.960 12.400 -2.440 11.440 -2.920C11.920 -4.360 12.400 -5.800 12.880 -7.240C13.040 -10.600 13.200 -13.960 13.360 -17.320C13.680 -20.120 14.000 -22.920 14.320 -25.720C14.320 -25.720 12.880 -32.200 12.640 -33.160C12.400 -34.120 13.120 -39.880 14.080 -42.040C15.040 -44.200 14.560 -48.280 14.560 -49.240C14.560 -50.200 16.000 -58.360 16.000 -58.360C9.840 -58.360 3.680 -58.360 -2.480 -58.360C-2.160 -56.360 -1.840 -54.360 -1.520 -52.360C-1.520 -52.360 -1.280 -43.240 -1.040 -42.280C-0.800 -41.320 0.880 -33.640 0.880 -33.640C0.640 -30.680 0.400 -27.720 0.160 -24.760C0.880 -20.600 1.600 -16.440 2.320 -12.280C3.040 -9.400 3.760 -6.520 4.480 -3.640C4.480 -3.640 4.960 0.920 3.760 3.800C2.560 6.680 -7.760 30.680 -7.760 30.680M373.360 -705.400C373.360 -705.400 373.360 -705.400 373.360 -705.400C372.640 -704.680 370.720 -700.840 367.840 -698.920C364.960 -697.000 363.280 -691.000 363.040 -690.280C362.800 -689.560 356.320 -678.040 356.320 -678.040C356.320 -678.040 356.320 -678.040 356.320 -678.040C355.840 -677.320 353.920 -673.960 353.680 -673.240C353.440 -672.520 353.440 -669.640 354.400 -664.360C355.360 -659.080 355.360 -655.960 355.600 -654.280C355.840 -652.600 358.960 -651.640 359.680 -651.400C360.400 -651.160 367.840 -647.560 367.840 -647.560C367.840 -647.560 375.040 -648.760 378.160 -649.000C378.160 -649.000 378.160 -649.000 378.160 -649.000C378.160 -649.000 385.120 -648.520 387.280 -649.720C389.440 -650.920 387.280 -660.280 386.080 -666.280C384.880 -672.280 386.080 -674.680 388.720 -684.040C391.360 -693.400 389.680 -691.480 389.200 -695.800C388.720 -700.120 387.520 -706.840 385.840 -711.160C384.160 -715.480 374.080 -706.120 373.360 -705.400" />
</clipPath>
<g clip-path="url(#clip_2_output/ledena_ext.svg)">
<path fill="#cccccc" stroke="none" d="M5.440 0.920L8.320 0.920L14.080 5.000C14.080 5.000 12.880 6.440 11.920 7.400C10.960 8.360 8.080 10.760 8.080 10.760L3.760 9.320C3.760 9.320 1.120 5.480 0.640 4.760C0.160 4.040 5.440 0.920 5.440 0.920Z" />
<path fill="none" stroke="#000000" stroke-width="0.500" d="M5.440 0.920L8.320 0.920L14.080 5.000C14.080 5.000 12.880 6.440 11.920 7.400C10.960 8.360 8.080 10.760 8.080 10.760L3.760 9.320C3.760 9.320 1.120 5.480 0.640 4.760C0.160 4.040 5.440 0.920 5.440 0.920Z" />
</g>
</g>
</g>
<g id="G_aaaaaaa_output/ledena_ext.svg">
</g>
<g id="B_aaaaaaa_output/ledena_ext.svg">
<path fill="none" stroke="inherit" stroke-width="0.350" d="M526.560 118.400C526.560 118.400 496.560 120.800 493.920 125.120C491.280 129.440 489.360 141.440 489.360 141.440C489.360 141.440 459.360 178.400 457.200 182.960C455.040 187.520 453.840 198.320 452.640 201.920C451.440 205.520 438.720 233.840 437.760 235.760C436.800 237.680 433.920 242.960 431.280 243.920C428.640 244.880 421.680 248.000 419.280 246.320C416.880 244.640 412.080 243.680 410.400 241.040C408.720 238.400 394.560 215.600 390.960 214.640C387.360 213.680 377.520 212.240 376.560 212.240C375.600 212.240 368.640 213.920 366.480 214.880C364.320 215.840 361.440 216.560 359.760 217.520C358.080 218.480 347.040 226.160 347.040 226.160C347.040 226.160 339.840 261.680 338.640 265.520C337.440 269.360 335.520 276.800 334.800 278.240C334.080 279.680 328.560 287.120 328.560 287.120L321.120 282.800C321.120 282.800 312.480 276.320 312.480 273.920C312.480 271.520 307.680 262.400 307.920 260.480C308.160 258.560 303.360 231.920 301.680 230.480C300.000 229.040 297.840 226.880 296.400 226.400C294.960 225.920 286.080 226.880 285.840 227.840C285.600 228.800 283.920 243.920 283.920 251.600C283.920 259.280 291.120 369.200 289.920 379.280C288.720 389.360 293.040 423.440 295.680 433.040C298.320 442.640 301.680 471.440 301.920 484.640C302.160 497.840 300.000 511.520 300.000 512.480C300.000 513.440 278.880 582.080 277.200 586.880C275.520 591.680 275.040 605.120 274.560 610.400C274.080 615.680 273.600 642.560 274.560 649.040C275.520 655.520 276.000 662.000 277.680 663.440C279.360 664.880 283.200 665.360 286.080 665.120C288.960 664.880 296.400 663.680 296.400 663.680L301.920 666.320L306.240 672.320C306.240 672.320 305.040 678.560 304.560 679.280C304.080 680.000 302.640 686.960 299.760 687.200C296.880 687.440 291.600 685.760 291.600 685.760L291.600 680.960C291.600 680.960 289.680 677.840 287.760 675.920C285.840 674.000 277.680 677.600 277.680 678.800C277.680 680.000 266.640 705.680 264.960 713.120C263.280 720.560 246.720 749.600 246.720 749.600C246.720 749.600 245.760 752.480 242.640 751.520C239.520 750.560 237.840 738.080 236.160 735.440C234.480 732.800 228.000 694.880 224.400 689.360C220.800 683.840 213.120 675.680 211.680 675.440C210.240 675.200 203.760 675.680 200.640 677.360C197.520 679.040 194.640 680.240 189.360 685.280C184.080 690.320 179.760 696.080 179.760 697.760C179.760 699.440 176.400 706.160 175.440 706.880C174.480 707.600 174.720 704.240 168.240 712.160C161.760 720.080 154.800 738.560 151.920 743.840C149.040 749.120 144.240 760.400 145.680 766.160C147.120 771.920 144.000 781.280 147.840 787.760C151.680 794.240 164.160 805.760 167.040 812.720C169.920 819.680 177.360 826.640 181.200 831.200C185.040 835.760 192.720 844.400 195.600 847.520C198.480 850.640 203.040 855.200 203.040 855.200" />
<path fill="none" stroke="inherit" stroke-width="0.350" d="M33.120 831.200C33.120 831.200 55.920 813.920 56.880 813.920C57.840 813.920 72.960 799.280 73.680 798.800C74.400 798.320 83.520 770.720 85.200 767.360C86.880 764.000 89.760 735.440 91.200 733.520C92.640 731.600 105.360 722.240 106.320 721.520C107.280 720.800 112.800 716.960 113.760 715.760C114.720 714.560 116.640 703.760 116.640 703.760C116.640 703.760 130.560 695.600 132.720 692.960C134.880 690.320 150.240 680.000 150.960 679.760C151.680 679.520 158.640 672.320 162.480 670.400C166.320 668.480 172.800 660.320 174.480 659.840C176.160 659.360 181.200 657.440 181.200 656.000C181.200 654.560 181.200 652.880 181.440 649.520C181.680 646.160 194.160 632.000 197.520 627.440C200.880 622.880 205.920 620.240 205.440 614.240C204.960 608.240 202.800 611.120 204.240 606.320C205.680 601.520 210.000 528.800 210.240 524.720C210.480 520.640 210.000 515.600 210.720 513.920C211.440 512.240 221.280 390.800 221.280 385.520C221.280 380.240 221.280 344.240 222.240 342.800C223.200 341.360 224.640 308.240 226.560 304.400C228.480 300.560 231.840 275.120 232.320 271.280C232.800 267.440 232.320 256.880 229.920 246.800C227.520 236.720 228.960 212.240 228.960 212.240C228.960 212.240 229.440 190.160 227.040 186.320" />
<path fill="none" stroke="inherit" stroke-width="0.350" d="M227.040 186.320L236.640 190.640C236.640 190.640 240.000 192.560 247.680 194.000C255.360 195.440 266.400 196.880 266.400 196.880C266.400 196.880 278.880 195.920 282.720 194.960C286.560 194.000 289.440 195.920 297.120 193.520C304.800 191.120 312.960 185.360 312.960 185.360" />
<path fill="none" stroke="inherit" stroke-width="0.350" d="M312.960 185.360C312.960 185.360 318.240 179.600 316.320 178.160C314.400 176.720 311.520 171.440 311.520 171.440C311.520 171.440 306.240 170.000 299.520 170.480C292.800 170.960 291.360 171.920 289.920 170.480C288.480 169.040 282.600 156.800 282.600 156.800" />
<path fill="none" stroke="inherit" stroke-width="0.350" d="M282.600 156.800C282.600 156.800 281.160 155.240 276.840 154.040" />
<path fill="none" stroke="inherit" stroke-width="0.350" d="M278.040 149.840C278.880 150.200 285.840 152.000 288.480 152.360C291.120 152.720 294.600 153.920 299.760 154.040C304.920 154.160 310.200 155.360 313.560 154.280C316.920 153.200 327.600 155.960 328.320 155.840C329.040 155.720 333.960 153.440 336.000 153.680C338.040 153.920 340.200 151.640 341.760 151.760C343.320 151.880 344.640 150.680 344.640 150.680" />
<path fill="none" stroke="inherit" stroke-width="0.350" d="M345.240 150.680C345.240 150.680 350.520 151.160 351.720 150.800" />
<path fill="none" stroke="inherit" stroke-width="0.350" d="M351.720 150.800C351.720 150.800 355.320 149.240 356.640 145.880C357.960 142.520 360.120 136.520 360.840 135.320C361.560 134.120 364.080 128.480 364.320 127.160C364.560 125.840 368.280 118.400 368.040 117.680" />
<path fill="none" stroke="inherit" stroke-width="0.350" d="M368.040 117.680L375.960 98.480C375.960 98.480 376.080 92.840 376.800 91.280C377.520 89.720 384.000 78.920 384.000 78.920" />
<path fill="none" stroke="inherit" stroke-width="0.350" d="M384.000 78.920C384.000 78.920 397.560 75.200 399.240 72.560C400.920 69.920 404.040 63.800 404.640 62.720C405.240 61.640 404.400 57.560 408.960 53.960C413.520 50.360 414.000 50.000 415.080 49.280C416.160 48.560 431.160 44.120 436.200 42.200C441.240 40.280 447.000 38.600 448.560 38.120C450.120 37.640 451.440 37.760 453.360 36.200C455.280 34.640 460.440 29.120 462.000 27.920C463.560 26.720 470.760 23.840 474.000 20.840C477.240 17.840 482.280 14.960 482.760 14.360C483.240 13.760 491.640 7.520 492.000 7.400C492.360 7.280 498.000 5.480 498.960 4.400C499.920 3.320 504.480 0.320 504.960 1.280" />
<path fill="none" stroke="inherit" stroke-width="0.350" d="M504.960 1.280C504.960 1.280 506.640 27.200 505.920 31.040C505.200 34.880 503.280 41.840 506.400 42.320C509.520 42.800 510.720 43.040 509.760 46.880C508.800 50.720 505.440 56.480 508.800 59.360C512.160 62.240 512.640 63.920 512.640 63.920C512.640 63.920 509.280 69.200 510.720 73.040C512.160 76.880 513.600 75.440 515.040 76.160C516.480 76.880 514.080 82.640 515.280 87.680C516.480 92.720 519.600 98.960 519.600 98.960" />
<path fill="none" stroke="inherit" stroke-width="0.350" d="M519.600 98.960C519.600 98.960 518.400 102.320 527.040 104.720C535.680 107.120 541.200 106.880 541.200 106.880" />
<path fill="none" stroke="inherit" stroke-width="0.350" d="M542.640 118.160C542.640 118.160 528.960 116.720 526.560 118.400" />
<path fill="none" stroke="inherit" stroke-width="0.350" d="M0.240 861.680C0.240 861.680 10.560 837.680 11.760 834.800C12.960 831.920 12.480 827.360 12.480 827.360L10.320 818.720L8.160 806.240L8.880 797.360C8.880 797.360 7.200 789.680 6.960 788.720C6.720 787.760 6.480 778.640 6.480 778.640L5.520 772.640" />
<path fill="none" stroke="inherit" stroke-width="0.350" d="M24.000 772.640C24.000 772.640 22.560 780.800 22.560 781.760C22.560 782.720 23.040 786.800 22.080 788.960C21.120 791.120 20.400 796.880 20.640 797.840C20.880 798.800 22.320 805.280 22.320 805.280L21.360 813.680L20.880 823.760L19.440 828.080L22.320 829.520L29.760 831.200L33.120 831.200" />
<path fill="none" stroke="inherit" stroke-width="0.350" d="M381.360 125.600C382.080 124.880 392.160 115.520 393.840 119.840C395.520 124.160 396.720 130.880 397.200 135.200C397.680 139.520 399.360 137.600 396.720 146.960C394.080 156.320 392.880 158.720 394.080 164.720C395.280 170.720 397.440 180.080 395.280 181.280C393.120 182.480 386.160 182.000 386.160 182.000" />
<path fill="none" stroke="inherit" stroke-width="0.350" d="M386.160 182.000C383.040 182.240 375.840 183.440 375.840 183.440C375.840 183.440 368.400 179.840 367.680 179.600C366.960 179.360 363.840 178.400 363.600 176.720C363.360 175.040 363.360 171.920 362.400 166.640C361.440 161.360 361.440 158.480 361.680 157.760C361.920 157.040 363.840 153.680 364.320 152.960" />
<path fill="none" stroke="inherit" stroke-width="0.350" d="M364.320 152.960C364.320 152.960 370.800 141.440 371.040 140.720C371.280 140.000 372.960 134.000 375.840 132.080C378.720 130.160 380.640 126.320 381.360 125.600" />
</g>
<g id="I_aaaaaaa_output/ledena_ext.svg">
<path fill="inherit" stroke="none" d="M526.560 117.400C526.560 117.400 496.560 119.800 493.920 124.120C491.280 128.440 489.360 140.440 489.360 140.440C489.360 140.440 459.360 177.400 457.200 181.960C455.040 186.520 453.840 197.320 452.640 200.920C451.440 204.520 438.720 232.840 437.760 234.760C436.800 236.680 433.920 241.960 431.280 242.920C428.640 243.880 421.680 247.000 419.280 245.320C416.880 243.640 412.080 242.680 410.400 240.040C408.720 237.400 394.560 214.600 390.960 213.640C387.360 212.680 377.520 211.240 376.560 211.240C375.600 211.240 368.640 212.920 366.480 213.880C364.320 214.840 361.440 215.560 359.760 216.520C358.080 217.480 347.040 225.160 347.040 225.160C347.040 225.160 339.840 260.680 338.640 264.520C337.440 268.360 335.520 275.800 334.800 277.240C334.080 278.680 328.560 286.120 328.560 286.120C326.080 284.680 323.600 283.240 321.120 281.800C321.120 281.800 312.480 275.320 312.480 272.920C312.480 270.520 307.680 261.400 307.920 259.480C308.160 257.560 303.360 230.920 301.680 229.480C300.000 228.040 297.840 225.880 296.400 225.400C294.960 224.920 286.080 225.880 285.840 226.840C285.600 227.800 283.920 242.920 283.920 250.600C283.920 258.280 291.120 368.200 289.920 378.280C288.720 388.360 293.040 422.440 295.680 432.040C298.320 441.640 301.680 470.440 301.920 483.640C302.160 496.840 300.000 510.520 300.000 511.480C300.000 512.440 278.880 581.080 277.200 585.880C275.520 590.680 275.040 604.120 274.560 609.400C274.080 614.680 273.600 641.560 274.560 648.040C275.520 654.520 276.000 661.000 277.680 662.440C279.360 663.880 283.200 664.360 286.080 664.120C288.960 663.880 296.400 662.680 296.400 662.680C298.240 663.560 300.080 664.440 301.920 665.320C303.360 667.320 304.800 669.320 306.240 671.320C306.240 671.320 305.040 677.560 304.560 678.280C304.080 679.000 302.640 685.960 299.760 686.200C296.880 686.440 291.600 684.760 291.600 684.760C291.600 683.160 291.600 681.560 291.600 679.960C291.600 679.960 289.680 676.840 287.760 674.920C285.840 673.000 277.680 676.600 277.680 677.800C277.680 679.000 266.640 704.680 264.960 712.120C263.280 719.560 246.720 748.600 246.720 748.600C246.720 748.600 245.760 751.480 242.640 750.520C239.520 749.560 237.840 737.080 236.160 734.440C234.480 731.800 228.000 693.880 224.400 688.360C220.800 682.840 213.120 674.680 211.680 674.440C210.240 674.200 203.760 674.680 200.640 676.360C197.520 678.040 194.640 679.240 189.360 684.280C184.080 689.320 179.760 695.080 179.760 696.760C179.760 698.440 176.400 705.160 175.440 705.880C174.480 706.600 174.720 703.240 168.240 711.160C161.760 719.080 154.800 737.560 151.920 742.840C149.040 748.120 144.240 759.400 145.680 765.160C147.120 770.920 144.000 780.280 147.840 786.760C151.680 793.240 164.160 804.760 167.040 811.720C169.920 818.680 177.360 825.640 181.200 830.200C185.040 834.760 192.720 843.400 195.600 846.520C198.480 849.640 203.040 854.200 203.040 854.200C146.400 846.200 89.760 838.200 33.120 830.200C33.120 830.200 55.920 812.920 56.880 812.920C57.840 812.920 72.960 798.280 73.680 797.800C74.400 797.320 83.520 769.720 85.200 766.360C86.880 763.000 89.760 734.440 91.200 732.520C92.640 730.600 105.360 721.240 106.320 720.520C107.280 719.800 112.800 715.960 113.760 714.760C114.720 713.560 116.640 702.760 116.640 702.760C116.640 702.760 130.560 694.600 132.720 691.960C134.880 689.320 150.240 679.000 150.960 678.760C151.680 678.520 158.640 671.320 162.480 669.400C166.320 667.480 172.800 659.320 174.480 658.840C176.160 658.360 181.200 656.440 181.200 655.000C181.200 653.560 181.200 651.880 181.440 648.520C181.680 645.160 194.160 631.000 197.520 626.440C200.880 621.880 205.920 619.240 205.440 613.240C204.960 607.240 202.800 610.120 204.240 605.320C205.680 600.520 210.000 527.800 210.240 523.720C210.480 519.640 210.000 514.600 210.720 512.920C211.440 511.240 221.280 389.800 221.280 384.520C221.280 379.240 221.280 343.240 222.240 341.800C223.200 340.360 224.640 307.240 226.560 303.400C228.480 299.560 231.840 274.120 232.320 270.280C232.800 266.440 232.320 255.880 229.920 245.800C227.520 235.720 228.960 211.240 228.960 211.240C228.960 211.240 229.440 189.160 227.040 185.320C227.040 185.320 227.040 185.320 227.040 185.320C230.240 186.760 233.440 188.200 236.640 189.640C236.640 189.640 240.000 191.560 247.680 193.000C255.360 194.440 266.400 195.880 266.400 195.880C266.400 195.880 278.880 194.920 282.720 193.960C286.560 193.000 289.440 194.920 297.120 192.520C304.800 190.120 312.960 184.360 312.960 184.360C312.960 184.360 312.960 184.360 312.960 184.360C312.960 184.360 318.240 178.600 316.320 177.160C314.400 175.720 311.520 170.440 311.520 170.440C311.520 170.440 306.240 169.000 299.520 169.480C292.800 169.960 291.360 170.920 289.920 169.480C288.480 168.040 282.600 155.800 282.600 155.800C282.600 155.800 282.600 155.800 282.600 155.800C282.600 155.800 281.160 154.240 276.840 153.040C277.240 151.640 277.640 150.240 278.040 148.840C278.880 149.200 285.840 151.000 288.480 151.360C291.120 151.720 294.600 152.920 299.760 153.040C304.920 153.160 310.200 154.360 313.560 153.280C316.920 152.200 327.600 154.960 328.320 154.840C329.040 154.720 333.960 152.440 336.000 152.680C338.040 152.920 340.200 150.640 341.760 150.760C343.320 150.880 344.640 149.680 344.640 149.680C344.840 149.680 345.040 149.680 345.240 149.680C345.240 149.680 350.520 150.160 351.720 149.800C351.720 149.800 351.720 149.800 351.720 149.800C351.720 149.800 355.320 148.240 356.640 144.880C357.960 141.520 360.120 135.520 360.840 134.320C361.560 133.120 364.080 127.480 364.320 126.160C364.560 124.840 368.280 117.400 368.040 116.680C368.040 116.680 368.040 116.680 368.040 116.680C370.680 110.280 373.320 103.880 375.960 97.480C375.960 97.480 376.080 91.840 376.800 90.280C377.520 88.720 384.000 77.920 384.000 77.920C384.000 77.920 384.000 77.920 384.000 77.920C384.000 77.920 397.560 74.200 399.240 71.560C400.920 68.920 404.040 62.800 404.640 61.720C405.240 60.640 404.400 56.560 408.960 52.960C413.520 49.360 414.000 49.000 415.080 48.280C416.160 47.560 431.160 43.120 436.200 41.200C441.240 39.280 447.000 37.600 448.560 37.120C450.120 36.640 451.440 36.760 453.360 35.200C455.280 33.640 460.440 28.120 462.000 26.920C463.560 25.720 470.760 22.840 474.000 19.840C477.240 16.840 482.280 13.960 482.760 13.360C483.240 12.760 491.640 6.520 492.000 6.400C492.360 6.280 498.000 4.480 498.960 3.400C499.920 2.320 504.480 -0.680 504.960 0.280C504.960 0.280 504.960 0.280 504.960 0.280C504.960 0.280 506.640 26.200 505.920 30.040C505.200 33.880 503.280 40.840 506.400 41.320C509.520 41.800 510.720 42.040 509.760 45.880C508.800 49.720 505.440 55.480 508.800 58.360C512.160 61.240 512.640 62.920 512.640 62.920C512.640 62.920 509.280 68.200 510.720 72.040C512.160 75.880 513.600 74.440 515.040 75.160C516.480 75.880 514.080 81.640 515.280 86.680C516.480 91.720 519.600 97.960 519.600 97.960C519.600 97.960 519.600 97.960 519.600 97.960C519.600 97.960 518.400 101.320 527.040 103.720C535.680 106.120 541.200 105.880 541.200 105.880C541.680 109.640 542.160 113.400 542.640 117.160C542.640 117.160 528.960 115.720 526.560 117.400C526.560 117.400 526.560 117.400 526.560 117.400M0.240 860.680C11.200 850.520 22.160 840.360 33.120 830.200C32.000 830.200 30.880 830.200 29.760 830.200C27.280 829.640 24.800 829.080 22.320 828.520C21.360 828.040 20.400 827.560 19.440 827.080C19.920 825.640 20.400 824.200 20.880 822.760C21.040 819.400 21.200 816.040 21.360 812.680C21.680 809.880 22.000 807.080 22.320 804.280C22.320 804.280 20.880 797.800 20.640 796.840C20.400 795.880 21.120 790.120 22.080 787.960C23.040 785.800 22.560 781.720 22.560 780.760C22.560 779.800 24.000 771.640 24.000 771.640C17.840 771.640 11.680 771.640 5.520 771.640C5.840 773.640 6.160 775.640 6.480 777.640C6.480 777.640 6.720 786.760 6.960 787.720C7.200 788.680 8.880 796.360 8.880 796.360C8.640 799.320 8.400 802.280 8.160 805.240C8.880 809.400 9.600 813.560 10.320 817.720C11.040 820.600 11.760 823.480 12.480 826.360C12.480 826.360 12.960 830.920 11.760 833.800C10.560 836.680 0.240 860.680 0.240 860.680M381.360 124.600C381.360 124.600 381.360 124.600 381.360 124.600C380.640 125.320 378.720 129.160 375.840 131.080C372.960 133.000 371.280 139.000 371.040 139.720C370.800 140.440 364.320 151.960 364.320 151.960C364.320 151.960 364.320 151.960 364.320 151.960C363.840 152.680 361.920 156.040 361.680 156.760C361.440 157.480 361.440 160.360 362.400 165.640C363.360 170.920 363.360 174.040 363.600 175.720C363.840 177.400 366.960 178.360 367.680 178.600C368.400 178.840 375.840 182.440 375.840 182.440C375.840 182.440 383.040 181.240 386.160 181.000C386.160 181.000 386.160 181.000 386.160 181.000C386.160 181.000 393.120 181.480 395.280 180.280C397.440 179.080 395.280 169.720 394.080 163.720C392.880 157.720 394.080 155.320 396.720 145.960C399.360 136.600 397.680 138.520 397.200 134.200C396.720 129.880 395.520 123.160 393.840 118.840C392.160 114.520 382.080 123.880 381.360 124.600Z" />
</g>
<g id="E_aaaaaaa_output/ledena_ext.svg">
<path fill="none" stroke="#000000" stroke-width="1.000" d="M1.240 862.680C1.240 862.680 11.560 838.680 12.760 835.800C13.960 832.920 13.480 828.360 13.480 828.360L11.320 819.720L9.160 807.240L9.880 798.360C9.880 798.360 8.200 790.680 7.960 789.720C7.720 788.760 7.480 779.640 7.480 779.640L6.520 773.640" />
<path fill="none" stroke="#000000" stroke-width="1.000" d="M34.120 832.200C34.120 832.200 56.920 814.920 57.880 814.920C58.840 814.920 73.960 800.280 74.680 799.800C75.400 799.320 84.520 771.720 86.200 768.360C87.880 765.000 90.760 736.440 92.200 734.520C93.640 732.600 106.360 723.240 107.320 722.520C108.280 721.800 113.800 717.960 114.760 716.760C115.720 715.560 117.640 704.760 117.640 704.760C117.640 704.760 131.560 696.600 133.720 693.960C135.880 691.320 151.240 681.000 151.960 680.760C152.680 680.520 159.640 673.320 163.480 671.400C167.320 669.480 173.800 661.320 175.480 660.840C177.160 660.360 182.200 658.440 182.200 657.000C182.200 655.560 182.200 653.880 182.440 650.520C182.680 647.160 195.160 633.000 198.520 628.440C201.880 623.880 206.920 621.240 206.440 615.240C205.960 609.240 203.800 612.120 205.240 607.320C206.680 602.520 211.000 529.800 211.240 525.720C211.480 521.640 211.000 516.600 211.720 514.920C212.440 513.240 222.280 391.800 222.280 386.520C222.280 381.240 222.280 345.240 223.240 343.800C224.200 342.360 225.640 309.240 227.560 305.400C229.480 301.560 232.840 276.120 233.320 272.280C233.800 268.440 233.320 257.880 230.920 247.800C228.520 237.720 229.960 213.240 229.960 213.240C229.960 213.240 230.440 191.160 228.040 187.320" />
<path fill="none" stroke="#000000" stroke-width="1.000" d="M25.000 773.640C25.000 773.640 23.560 781.800 23.560 782.760C23.560 783.720 24.040 787.800 23.080 789.960C22.120 792.120 21.400 797.880 21.640 798.840C21.880 799.800 23.320 806.280 23.320 806.280L22.360 814.680L21.880 824.760L20.440 829.080L23.320 830.520L30.760 832.200L34.120 832.200" />
<path fill="none" stroke="#000000" stroke-width="0.500" d="M229.668 190.486C229.674 189.543 228.391 187.738 227.509 186.424C228.795 186.589 230.501 187.489 231.790 187.421C231.586 188.305 230.495 189.300 229.668 190.486Z" />
<path fill="none" stroke="#000000" stroke-width="0.500" d="M232.698 187.209C233.392 188.490 235.196 189.407 235.926 190.985C234.507 191.437 232.746 191.035 231.960 191.788C231.817 189.774 232.585 188.777 232.698 187.209Z" />
<path fill="none" stroke="#000000" stroke-width="0.500" d="M235.979 189.694C237.171 190.220 238.262 190.764 239.491 191.397C238.755 192.536 237.298 192.998 236.770 193.948C236.256 192.310 236.281 191.289 235.979 189.694Z" />
<path fill="none" stroke="#000000" stroke-width="0.500" d="M244.027 193.567C242.498 193.407 240.999 194.059 240.021 195.075C239.966 193.306 239.604 192.010 240.103 191.332C241.794 191.356 242.267 192.415 244.027 193.567Z" />
<path fill="none" stroke="#000000" stroke-width="0.500" d="M245.996 192.158C246.661 193.715 245.633 194.723 245.604 196.596C244.744 195.864 244.140 195.300 242.879 194.387C243.633 193.505 244.809 192.972 245.996 192.158Z" />
<path fill="none" stroke="#000000" stroke-width="0.500" d="M251.161 193.287C250.562 194.285 249.924 195.971 249.509 197.868C248.621 196.986 247.695 195.724 246.992 194.665C247.813 193.694 249.777 193.896 251.161 193.287Z" />
<path fill="none" stroke="#000000" stroke-width="0.500" d="M252.944 193.679C253.338 194.656 254.588 195.437 255.334 197.004C253.384 196.952 252.000 196.778 251.305 196.689C251.990 195.377 251.897 194.435 252.944 193.679Z" />
<path fill="none" stroke="#000000" stroke-width="0.500" d="M255.067 195.615C256.272 194.887 258.159 195.060 259.390 195.407C258.846 196.421 257.485 197.451 257.170 198.996C255.918 198.021 255.405 196.168 255.067 195.615Z" />
<path fill="none" stroke="#000000" stroke-width="0.500" d="M259.090 195.330C260.360 195.651 261.773 195.868 263.643 195.681C263.034 197.337 261.626 197.751 261.564 198.916C260.513 198.372 259.210 196.592 259.090 195.330Z" />
<path fill="none" stroke="#000000" stroke-width="0.500" d="M264.259 199.431C263.674 198.626 264.183 197.198 263.919 195.380C265.423 196.386 266.110 197.448 267.682 198.126C266.113 198.125 264.720 199.221 264.259 199.431Z" />
<path fill="none" stroke="#000000" stroke-width="0.500" d="M270.191 199.656C269.658 199.022 268.139 198.450 266.792 197.425C267.542 197.391 268.934 196.351 270.095 195.276C269.995 197.282 270.651 198.416 270.191 199.656Z" />
<path fill="none" stroke="#000000" stroke-width="0.500" d="M272.873 194.546C273.213 195.813 274.653 197.039 275.535 197.782C274.373 197.955 273.104 198.168 272.023 199.020C271.767 197.747 272.557 195.962 272.873 194.546Z" />
<path fill="none" stroke="#000000" stroke-width="0.500" d="M280.083 196.667C278.912 197.721 277.880 198.563 276.717 199.179C276.187 198.217 275.769 196.453 276.308 195.510C276.725 195.673 278.660 195.444 280.083 196.667Z" />
<path fill="none" stroke="#000000" stroke-width="0.500" d="M282.364 198.694C281.515 197.960 280.389 197.157 279.177 195.567C280.639 195.760 281.699 195.356 283.330 194.744C282.248 196.009 282.331 197.482 282.364 198.694Z" />
<path fill="none" stroke="#000000" stroke-width="0.500" d="M287.462 194.578C286.919 196.191 285.704 197.483 285.195 197.942C284.772 196.396 284.527 195.630 284.051 193.823C284.750 194.617 286.344 194.477 287.462 194.578Z" />
<path fill="none" stroke="#000000" stroke-width="0.500" d="M289.837 193.320C290.782 194.942 290.821 195.913 291.214 197.626C290.290 196.733 289.087 196.374 288.044 196.950C288.380 195.643 289.074 194.147 289.837 193.320Z" />
<path fill="none" stroke="#000000" stroke-width="0.500" d="M291.963 193.695C293.706 193.995 294.994 195.227 296.024 195.656C295.193 196.794 293.812 197.365 292.222 197.805C292.272 195.902 292.537 194.589 291.963 193.695Z" />
<path fill="none" stroke="#000000" stroke-width="0.500" d="M299.214 192.685C299.052 193.830 298.334 195.607 298.500 197.307C297.282 195.805 296.453 194.873 295.643 194.738C296.717 193.707 297.507 193.461 299.214 192.685Z" />
<path fill="none" stroke="#000000" stroke-width="0.500" d="M299.489 194.492C299.823 193.415 301.044 191.380 301.883 191.369C302.706 191.866 302.499 193.331 302.578 194.893C301.423 194.373 300.568 195.009 299.489 194.492Z" />
<path fill="none" stroke="#000000" stroke-width="0.500" d="M304.383 189.586C305.415 190.124 306.545 191.280 307.443 192.224C306.384 192.338 304.814 192.347 303.567 192.758C304.066 191.585 303.871 190.290 304.383 189.586Z" />
<path fill="none" stroke="#000000" stroke-width="0.500" d="M306.672 189.015C308.055 188.579 309.585 188.854 310.474 188.279C309.907 188.998 309.587 190.788 309.334 191.512C308.742 191.250 307.622 190.105 306.672 189.015Z" />
<path fill="none" stroke="#000000" stroke-width="0.500" d="M314.639 188.924C312.387 188.252 311.687 188.477 309.811 187.587C310.881 187.528 311.961 185.793 313.232 185.140C313.320 186.486 314.023 187.957 314.639 188.924Z" />
<path fill="none" stroke="#000000" stroke-width="1.000" d="M313.960 186.360C313.960 186.360 319.240 180.600 317.320 179.160C315.400 177.720 312.520 172.440 312.520 172.440C312.520 172.440 307.240 171.000 300.520 171.480C293.800 171.960 292.360 172.920 290.920 171.480C289.480 170.040 283.600 157.800 283.600 157.800" />
<path fill="none" stroke="#000000" stroke-width="1.000" stroke-dasharray="6.000,6.000" stroke-dashoffset="0.000" d="M283.600 157.800C283.600 157.800 282.160 156.240 277.840 155.040" />
<path fill="none" stroke="#000000" stroke-width="0.500" d="M282.259 148.862C281.629 150.286 282.269 152.151 282.024 153.232C280.528 152.979 279.720 152.565 278.400 151.573C279.520 150.410 280.945 149.688 282.259 148.862Z" />
<path fill="none" stroke="#000000" stroke-width="0.500" d="M287.524 152.127C286.078 153.293 285.136 153.915 284.104 154.424C283.559 152.897 284.109 151.786 283.513 150.653C285.055 151.077 285.757 151.498 287.524 152.127Z" />
<path fill="none" stroke="#000000" stroke-width="0.500" d="M290.347 151.959C290.235 153.601 289.610 154.320 288.529 155.140C287.691 154.688 287.783 153.449 286.660 152.453C288.546 151.884 289.166 152.090 290.347 151.959Z" />
<path fill="none" stroke="#000000" stroke-width="0.500" d="M291.130 151.551C292.746 152.985 293.501 153.635 295.164 154.214C294.166 154.576 292.649 155.214 291.902 156.305C291.328 154.383 291.331 153.471 291.130 151.551Z" />
<path fill="none" stroke="#000000" stroke-width="0.500" d="M296.502 151.730C297.491 153.722 297.410 154.682 298.705 156.364C297.188 156.170 296.484 155.722 294.742 155.550C295.264 154.427 295.963 153.256 296.502 151.730Z" />
<path fill="none" stroke="#000000" stroke-width="0.500" d="M298.769 152.711C300.635 153.946 301.483 154.383 303.490 155.108C302.143 156.123 300.960 156.040 300.336 156.899C299.429 155.859 299.376 154.851 298.769 152.711Z" />
<path fill="none" stroke="#000000" stroke-width="0.500" d="M302.914 153.144C304.421 153.458 306.083 154.675 306.956 155.425C306.076 155.832 305.005 156.183 303.895 157.686C303.186 155.702 303.322 154.370 302.914 153.144Z" />
<path fill="none" stroke="#000000" stroke-width="0.500" d="M309.529 158.309C308.336 157.031 307.725 156.181 306.144 155.582C307.436 154.288 308.884 154.814 310.236 153.696C310.275 155.517 309.694 156.525 309.529 158.309Z" />
<path fill="none" stroke="#000000" stroke-width="0.500" d="M313.539 153.202C313.412 155.015 313.969 155.839 314.225 157.459C313.312 157.201 311.982 156.049 310.925 156.143C311.185 155.171 312.350 153.817 313.539 153.202Z" />
<path fill="none" stroke="#000000" stroke-width="0.500" d="M318.855 155.642C317.310 156.429 316.204 156.210 314.924 156.197C314.742 155.448 315.546 153.889 316.634 152.728C317.775 153.481 317.655 154.717 318.855 155.642Z" />
<path fill="none" stroke="#000000" stroke-width="0.500" d="M318.307 157.119C319.717 155.280 319.933 154.641 319.928 153.010C320.745 154.010 321.794 155.172 322.791 155.773C322.000 156.254 320.200 157.068 318.307 157.119Z" />
<path fill="none" stroke="#000000" stroke-width="0.500" d="M323.438 158.397C323.689 157.141 323.459 155.234 323.962 154.044C324.232 154.493 325.815 155.010 326.800 156.143C326.090 156.872 324.709 157.725 323.438 158.397Z" />
<path fill="none" stroke="#000000" stroke-width="0.500" d="M330.838 155.149C329.894 156.558 328.998 158.491 328.670 159.339C327.270 158.234 327.114 156.215 326.928 155.330C327.999 154.960 329.678 155.801 330.838 155.149Z" />
<path fill="none" stroke="#000000" stroke-width="0.500" d="M334.490 155.185C333.615 156.769 332.801 156.684 331.098 157.605C331.237 157.130 331.217 155.135 331.041 153.584C332.147 154.870 333.216 154.698 334.490 155.185Z" />
<path fill="none" stroke="#000000" stroke-width="0.500" d="M337.215 156.413C335.551 156.066 334.668 155.236 334.400 154.156C334.792 153.866 336.908 153.311 337.747 152.753C337.483 154.518 337.806 155.485 337.215 156.413Z" />
<path fill="none" stroke="#000000" stroke-width="0.500" d="M339.177 151.714C339.876 152.164 341.705 153.020 342.935 154.323C341.461 154.512 340.179 155.212 338.783 154.928C338.913 153.809 338.853 153.083 339.177 151.714Z" />
<path fill="none" stroke="#000000" stroke-width="0.500" d="M341.748 153.396C342.366 152.496 343.259 151.867 344.851 150.041C345.151 151.435 344.682 152.821 345.796 153.888C344.487 153.671 343.038 154.426 341.748 153.396Z" />
<path fill="none" stroke="#000000" stroke-width="0.500" d="M350.284 150.851C349.001 152.541 348.303 152.985 346.428 153.826C346.675 152.264 346.159 151.440 346.522 149.790C347.282 150.630 349.037 150.824 350.284 150.851Z" />
<path fill="none" stroke="#000000" stroke-width="0.500" d="M352.430 154.248C351.025 152.812 350.089 152.852 348.529 151.897C349.681 150.725 350.759 151.056 352.316 149.672C352.720 151.342 352.645 153.213 352.430 154.248Z" />
<path fill="none" stroke="#000000" stroke-width="1.000" stroke-dasharray="6.000,6.000" stroke-dashoffset="0.000" d="M352.720 151.800C352.720 151.800 356.320 150.240 357.640 146.880C358.960 143.520 361.120 137.520 361.840 136.320C362.560 135.120 365.080 129.480 365.320 128.160C365.560 126.840 369.280 119.400 369.040 118.680" />
<path fill="none" stroke="#000000" stroke-width="1.000" d="M369.040 118.680L376.960 99.480C376.960 99.480 377.080 93.840 377.800 92.280C378.520 90.720 385.000 79.920 385.000 79.920" />
<path fill="none" stroke="#000000" stroke-width="0.500" d="M389.560 78.281C388.778 79.407 387.502 80.384 386.457 81.684C386.182 80.289 385.054 79.324 384.715 77.924C386.254 77.920 387.719 77.501 389.560 78.281Z" />
<path fill="none" stroke="#000000" stroke-width="0.500" d="M393.083 77.194C391.609 78.104 391.640 79.505 390.298 80.042C389.596 79.223 389.078 78.082 388.753 76.681C390.667 76.636 391.583 77.352 393.083 77.194Z" />
<path fill="none" stroke="#000000" stroke-width="0.500" d="M391.891 77.302C392.762 76.305 394.008 75.602 395.822 74.107C395.505 75.720 395.801 76.700 396.270 77.955C395.142 77.907 393.747 77.414 391.891 77.302Z" />
<path fill="none" stroke="#000000" stroke-width="0.500" d="M395.707 76.172C396.685 74.809 398.018 73.731 398.382 72.418C399.016 74.120 399.664 75.635 399.688 76.081C398.961 76.256 397.138 75.841 395.707 76.172Z" />
<path fill="none" stroke="#000000" stroke-width="0.500" d="M403.242 73.418C401.704 72.881 400.268 73.376 398.720 73.411C399.973 72.617 400.527 71.679 400.768 69.756C402.057 70.698 402.572 72.411 403.242 73.418Z" />
<path fill="none" stroke="#000000" stroke-width="0.500" d="M404.665 71.121C403.236 70.084 401.709 69.738 400.517 68.525C401.994 68.248 403.155 67.112 404.241 66.743C403.963 68.180 404.044 69.267 404.665 71.121Z" />
<path fill="none" stroke="#000000" stroke-width="0.500" d="M403.293 63.525C404.990 63.603 406.221 63.914 407.589 64.983C406.598 65.665 404.941 66.666 404.301 67.420C403.913 66.271 403.442 64.601 403.293 63.525Z" />
<path fill="none" stroke="#000000" stroke-width="0.500" d="M405.423 58.638C406.262 59.854 407.094 61.520 408.755 62.328C407.039 62.960 405.539 63.072 404.653 63.259C404.918 61.705 405.089 60.679 405.423 58.638Z" />
<path fill="none" stroke="#000000" stroke-width="0.500" d="M409.213 56.461C409.083 57.537 408.329 58.684 407.482 60.350C407.334 58.776 406.256 58.031 405.860 56.253C406.573 56.025 408.264 56.869 409.213 56.461Z" />
<path fill="none" stroke="#000000" stroke-width="0.500" d="M408.533 56.002C408.952 54.539 409.518 53.955 410.339 51.717C411.101 53.009 411.447 54.744 411.680 56.005C410.808 56.043 409.326 56.157 408.533 56.002Z" />
<path fill="none" stroke="#000000" stroke-width="0.500" d="M414.694 49.952C414.515 52.141 414.385 53.250 413.589 54.785C413.115 53.323 412.553 53.002 411.361 51.410C412.893 51.745 414.149 50.402 414.694 49.952Z" />
<path fill="none" stroke="#000000" stroke-width="0.500" d="M413.959 49.595C416.138 49.208 417.116 48.329 418.767 48.681C418.009 49.524 417.882 50.511 416.632 52.242C416.048 50.950 415.345 50.227 413.959 49.595Z" />
<path fill="none" stroke="#000000" stroke-width="0.500" d="M420.219 50.640C419.918 50.000 419.239 48.481 418.935 46.865C419.916 47.188 421.551 47.805 422.946 47.897C421.757 49.444 420.632 49.958 420.219 50.640Z" />
<path fill="none" stroke="#000000" stroke-width="0.500" d="M423.425 49.445C422.844 48.040 423.831 46.710 422.983 45.057C423.989 46.392 425.273 47.150 426.571 47.287C425.275 48.321 424.596 49.383 423.425 49.445Z" />
<path fill="none" stroke="#000000" stroke-width="0.500" d="M429.896 48.674C428.937 47.276 427.238 47.213 425.747 45.630C426.990 45.822 427.823 44.663 429.296 44.075C429.621 46.127 429.594 47.348 429.896 48.674Z" />
<path fill="none" stroke="#000000" stroke-width="0.500" d="M430.874 46.820C430.469 45.551 431.476 43.549 431.394 42.402C432.158 43.897 433.683 44.286 434.170 45.102C432.475 45.878 432.220 46.247 430.874 46.820Z" />
<path fill="none" stroke="#000000" stroke-width="0.500" d="M433.754 42.370C435.432 42.477 436.684 42.123 437.635 42.405C436.978 43.526 436.929 44.633 436.431 45.809C435.593 45.063 433.957 43.611 433.754 42.370Z" />
<path fill="none" stroke="#000000" stroke-width="0.500" d="M437.053 43.256C438.793 41.903 439.895 40.867 440.641 39.572C441.008 41.324 441.569 42.396 441.769 44.007C439.951 43.069 438.492 43.837 437.053 43.256Z" />
<path fill="none" stroke="#000000" stroke-width="0.500" d="M446.190 42.103C444.134 41.650 443.258 41.770 441.314 42.700C442.603 41.626 442.399 40.502 443.490 39.197C444.334 40.131 444.842 40.543 446.190 42.103Z" />
<path fill="none" stroke="#000000" stroke-width="0.500" d="M445.240 39.831C446.173 38.785 447.210 38.815 448.674 38.007C448.971 38.647 448.481 40.763 447.990 42.239C447.221 40.625 445.718 40.214 445.240 39.831Z" />
<path fill="none" stroke="#000000" stroke-width="0.500" d="M448.912 38.458C450.106 38.299 451.774 37.086 453.178 36.767C453.022 37.918 452.633 39.929 452.208 40.994C450.597 39.940 450.096 39.224 448.912 38.458Z" />
<path fill="none" stroke="#000000" stroke-width="0.500" d="M456.019 34.316C456.279 36.186 455.939 37.260 456.561 39.394C455.077 38.675 453.586 37.882 452.738 36.750C453.529 36.117 454.332 35.820 456.019 34.316Z" />
<path fill="none" stroke="#000000" stroke-width="0.500" d="M455.931 35.565C456.454 34.430 456.800 32.673 457.326 31.112C457.589 32.880 458.671 33.112 460.325 34.371C458.613 34.887 456.785 35.398 455.931 35.565Z" />
<path fill="none" stroke="#000000" stroke-width="0.500" d="M461.007 28.334C460.975 30.326 461.529 31.641 462.438 33.169C461.006 32.180 459.222 32.151 458.808 32.142C459.708 30.949 459.869 30.146 461.007 28.334Z" />
<path fill="none" stroke="#000000" stroke-width="0.500" d="M461.298 29.043C462.300 28.009 463.777 26.974 464.632 26.829C465.066 27.743 464.934 28.926 464.548 30.324C463.875 29.899 462.067 29.177 461.298 29.043Z" />
<path fill="none" stroke="#000000" stroke-width="0.500" d="M469.000 24.570C468.834 25.954 468.348 27.323 467.651 28.708C467.350 28.094 465.745 27.328 464.479 26.371C466.001 26.248 467.629 25.581 469.000 24.570Z" />
<path fill="none" stroke="#000000" stroke-width="0.500" d="M472.610 26.925C470.748 25.864 469.557 25.965 468.251 25.120C469.560 24.157 470.922 23.311 471.711 22.753C471.325 23.923 472.291 25.634 472.610 26.925Z" />
<path fill="none" stroke="#000000" stroke-width="0.500" d="M472.285 24.333C472.555 22.998 472.976 21.541 473.535 20.569C474.497 21.598 475.121 22.132 475.836 23.416C474.516 23.785 473.762 23.590 472.285 24.333Z" />
<path fill="none" stroke="#000000" stroke-width="0.500" d="M479.617 20.726C477.770 21.085 477.036 21.653 474.921 21.650C476.018 20.001 476.053 18.954 476.861 17.790C477.166 18.677 479.033 19.707 479.617 20.726Z" />
<path fill="none" stroke="#000000" stroke-width="0.500" d="M478.234 16.231C480.456 16.888 481.138 17.060 483.090 17.220C482.097 18.699 481.111 19.074 479.919 19.701C479.727 18.973 478.852 17.250 478.234 16.231Z" />
<path fill="none" stroke="#000000" stroke-width="0.500" d="M481.580 14.808C482.559 14.172 483.899 14.239 485.678 13.678C484.748 14.883 484.688 16.438 484.701 17.181C483.455 16.383 482.938 16.290 481.580 14.808Z" />
<path fill="none" stroke="#000000" stroke-width="0.500" d="M485.210 14.046C485.665 13.275 486.039 11.906 487.062 10.814C487.627 11.909 488.236 12.456 488.827 13.785C487.349 13.686 486.362 14.283 485.210 14.046Z" />
<path fill="none" stroke="#000000" stroke-width="0.500" d="M489.595 7.870C490.807 9.518 491.718 9.920 492.921 11.190C490.828 11.525 489.914 11.116 488.238 11.504C488.463 10.300 488.775 9.248 489.595 7.870Z" />
<path fill="none" stroke="#000000" stroke-width="0.500" d="M495.759 6.670C494.602 8.065 494.237 9.486 493.070 10.968C492.292 9.695 492.403 8.338 491.532 6.355C493.027 6.826 494.665 6.957 495.759 6.670Z" />
<path fill="none" stroke="#000000" stroke-width="0.500" d="M497.679 4.623C498.330 5.473 498.432 6.764 498.619 8.681C498.005 8.563 496.712 7.926 495.368 6.939C496.331 5.908 496.777 5.033 497.679 4.623Z" />
<path fill="none" stroke="#000000" stroke-width="0.500" d="M502.549 6.443C501.005 5.872 499.861 5.600 498.768 4.934C499.519 4.828 500.580 3.311 501.052 2.180C502.033 4.348 501.714 4.815 502.549 6.443Z" />
<path fill="none" stroke="#000000" stroke-width="0.500" d="M506.300 3.591C504.631 3.650 503.381 3.712 502.398 4.363C502.944 2.674 502.802 1.582 503.911 0.762C504.819 1.679 505.844 2.578 506.300 3.591Z" />
<path fill="none" stroke="#000000" stroke-width="0.500" d="M506.089 4.345C503.342 4.512 503.582 8.631 506.332 8.476" />
<path fill="#000000" stroke="none" d="M506.089 4.345C503.342 4.512 503.582 8.631 506.332 8.476L506.089 4.345Z" />
<path fill="none" stroke="#000000" stroke-width="0.500" d="M506.556 12.609C503.809 12.751 504.009 16.868 506.758 16.742" />
<path fill="#000000" stroke="none" d="M506.556 12.609C503.809 12.751 504.009 16.868 506.758 16.742L506.556 12.609Z" />
<path fill="none" stroke="#000000" stroke-width="0.500" d="M506.930 20.877C504.192 20.980 504.318 25.079 507.058 25.013" />
<path fill="#000000" stroke="none" d="M506.930 20.877C504.192 20.980 504.318 25.079 507.058 25.013L506.930 20.877Z" />
<path fill="none" stroke="#000000" stroke-width="0.500" d="M507.094 29.151C504.598 29.131 504.210 32.750 506.678 33.258" />
<path fill="#000000" stroke="none" d="M507.094 29.151C504.598 29.131 504.210 32.750 506.678 33.258L507.094 29.151Z" />
<path fill="none" stroke="#000000" stroke-width="0.500" d="M505.910 37.324C502.525 36.826 502.703 42.013 505.793 41.442" />
<path fill="#000000" stroke="none" d="M505.910 37.324C502.525 36.826 502.703 42.013 505.793 41.442L505.910 37.324Z" />
<path fill="none" stroke="#000000" stroke-width="0.500" d="M508.862 43.571C508.560 44.959 509.599 46.273 511.042 46.424" />
<path fill="#000000" stroke="none" d="M508.862 43.571C508.560 44.959 509.599 46.273 511.042 46.424L508.862 43.571Z" />
<path fill="none" stroke="#000000" stroke-width="0.500" d="M509.957 50.409C507.164 49.423 505.933 53.672 508.692 54.347" />
<path fill="#000000" stroke="none" d="M509.957 50.409C507.164 49.423 505.933 53.672 508.692 54.347L509.957 50.409Z" />
<path fill="none" stroke="#000000" stroke-width="0.500" d="M508.549 58.436C505.498 59.267 508.258 64.474 511.135 61.582" />
<path fill="#000000" stroke="none" d="M508.549 58.436C505.498 59.267 508.258 64.474 511.135 61.582L508.549 58.436Z" />
<path fill="none" stroke="#000000" stroke-width="0.500" d="M513.620 64.860C511.134 65.802 510.539 68.160 511.942 68.615" />
<path fill="#000000" stroke="none" d="M513.620 64.860C511.134 65.802 510.539 68.160 511.942 68.615L513.620 64.860Z" />
<path fill="none" stroke="#000000" stroke-width="0.500" d="M511.403 72.687C506.854 73.101 510.428 79.694 513.124 76.366" />
<path fill="#000000" stroke="none" d="M511.403 72.687C506.854 73.101 510.428 79.694 513.124 76.366L511.403 72.687Z" />
<path fill="none" stroke="#000000" stroke-width="0.500" d="M516.496 78.075C513.822 78.299 513.829 81.928 516.142 82.192" />
<path fill="#000000" stroke="none" d="M516.496 78.075C513.822 78.299 513.829 81.928 516.142 82.192L516.496 78.075Z" />
<path fill="none" stroke="#000000" stroke-width="0.500" d="M515.955 86.322C512.875 86.454 513.666 91.309 516.738 90.373" />
<path fill="#000000" stroke="none" d="M515.955 86.322C512.875 86.454 513.666 91.309 516.738 90.373L515.955 86.322Z" />
<path fill="none" stroke="#000000" stroke-width="0.500" d="M518.102 94.279C515.467 95.313 517.135 99.261 519.716 98.089" />
<path fill="#000000" stroke="none" d="M518.102 94.279C515.467 95.313 517.135 99.261 519.716 98.089L518.102 94.279Z" />
<path fill="none" stroke="#000000" stroke-width="0.500" d="M520.600 99.960L520.600 99.960" />
<path fill="#000000" stroke="none" d="M520.600 99.960L520.600 99.960L520.600 99.960Z" />
<path fill="none" stroke="#000000" stroke-width="1.000" d="M505.960 2.280C505.960 2.280 507.640 28.200 506.920 32.040C506.200 35.880 504.280 42.840 507.400 43.320C510.520 43.800 511.720 44.040 510.760 47.880C509.800 51.720 506.440 57.480 509.800 60.360C513.160 63.240 513.640 64.920 513.640 64.920C513.640 64.920 510.280 70.200 511.720 74.040C513.160 77.880 514.600 76.440 516.040 77.160C517.480 77.880 515.080 83.640 516.280 88.680C517.480 93.720 520.600 99.960 520.600 99.960" />
<path fill="none" stroke="#000000" stroke-width="0.500" d="M545.760 117.320C545.760 118.653 547.760 118.653 547.760 117.320C547.760 116.389 546.760 115.751 546.760 114.820" />
<path fill="none" stroke="#000000" stroke-width="1.200" d="M546.760 113.320h0.001" />
<path fill="none" stroke="#000000" stroke-width="1.000" stroke-dasharray="6.000,6.000" stroke-dashoffset="0.000" d="M543.640 119.160C543.640 119.160 529.960 117.720 527.560 119.400" />
<path fill="none" stroke="#000000" stroke-width="1.000" d="M527.560 119.400C527.560 119.400 497.560 121.800 494.920 126.120C492.280 130.440 490.360 142.440 490.360 142.440C490.360 142.440 460.360 179.400 458.200 183.960C456.040 188.520 454.840 199.320 453.640 202.920C452.440 206.520 439.720 234.840 438.760 236.760C437.800 238.680 434.920 243.960 432.280 244.920C429.640 245.880 422.680 249.000 420.280 247.320C417.880 245.640 413.080 244.680 411.400 242.040C409.720 239.400 395.560 216.600 391.960 215.640C388.360 214.680 378.520 213.240 377.560 213.240C376.600 213.240 369.640 214.920 367.480 215.880C365.320 216.840 362.440 217.560 360.760 218.520C359.080 219.480 348.040 227.160 348.040 227.160C348.040 227.160 340.840 262.680 339.640 266.520C338.440 270.360 336.520 277.800 335.800 279.240C335.080 280.680 329.560 288.120 329.560 288.120L322.120 283.800C322.120 283.800 313.480 277.320 313.480 274.920C313.480 272.520 308.680 263.400 308.920 261.480C309.160 259.560 304.360 232.920 302.680 231.480C301.000 230.040 298.840 227.880 297.400 227.400C295.960 226.920 287.080 227.880 286.840 228.840C286.600 229.800 284.920 244.920 284.920 252.600C284.920 260.280 292.120 370.200 290.920 380.280C289.720 390.360 294.040 424.440 296.680 434.040C299.320 443.640 302.680 472.440 302.920 485.640C303.160 498.840 301.000 512.520 301.000 513.480C301.000 514.440 279.880 583.080 278.200 587.880C276.520 592.680 276.040 606.120 275.560 611.400C275.080 616.680 274.600 643.560 275.560 650.040C276.520 656.520 277.000 663.000 278.680 664.440C280.360 665.880 284.200 666.360 287.080 666.120C289.960 665.880 297.400 664.680 297.400 664.680L302.920 667.320L307.240 673.320C307.240 673.320 306.040 679.560 305.560 680.280C305.080 681.000 303.640 687.960 300.760 688.200C297.880 688.440 292.600 686.760 292.600 686.760L292.600 681.960C292.600 681.960 290.680 678.840 288.760 676.920C286.840 675.000 278.680 678.600 278.680 679.800C278.680 681.000 267.640 706.680 265.960 714.120C264.280 721.560 247.720 750.600 247.720 750.600C247.720 750.600 246.760 753.480 243.640 752.520C240.520 751.560 238.840 739.080 237.160 736.440C235.480 733.800 229.000 695.880 225.400 690.360C221.800 684.840 214.120 676.680 212.680 676.440C211.240 676.200 204.760 676.680 201.640 678.360C198.520 680.040 195.640 681.240 190.360 686.280C185.080 691.320 180.760 697.080 180.760 698.760C180.760 700.440 177.400 707.160 176.440 707.880C175.480 708.600 175.720 705.240 169.240 713.160C162.760 721.080 155.800 739.560 152.920 744.840C150.040 750.120 145.240 761.400 146.680 767.160C148.120 772.920 145.000 782.280 148.840 788.760C152.680 795.240 165.160 806.760 168.040 813.720C170.920 820.680 178.360 827.640 182.200 832.200C186.040 836.760 193.720 845.400 196.600 848.520C199.480 851.640 204.040 856.200 204.040 856.200" />
<path fill="none" stroke="#000000" stroke-width="1.000" d="M387.160 183.000C384.040 183.240 376.840 184.440 376.840 184.440C376.840 184.440 369.400 180.840 368.680 180.600C367.960 180.360 364.840 179.400 364.600 177.720C364.360 176.040 364.360 172.920 363.400 167.640C362.440 162.360 362.440 159.480 362.680 158.760C362.920 158.040 364.840 154.680 365.320 153.960" />
<path fill="none" stroke="#000000" stroke-width="1.000" d="M382.360 126.600C383.080 125.880 393.160 116.520 394.840 120.840C396.520 125.160 397.720 131.880 398.200 136.200C398.680 140.520 400.360 138.600 397.720 147.960C395.080 157.320 393.880 159.720 395.080 165.720C396.280 171.720 398.440 181.080 396.280 182.280C394.120 183.480 387.160 183.000 387.160 183.000" />
<path fill="none" stroke="#000000" stroke-width="1.000" stroke-dasharray="6.000,6.000" stroke-dashoffset="0.000" d="M365.320 153.960C365.320 153.960 371.800 142.440 372.040 141.720C372.280 141.000 373.960 135.000 376.840 133.080C379.720 131.160 381.640 127.320 382.360 126.600" />
<path fill="none" stroke="#000000" stroke-width="0.500" d="M15.840 773.960C15.840 775.293 17.840 775.293 17.840 773.960C17.840 773.029 16.840 772.391 16.840 771.460" />
<path fill="none" stroke="#000000" stroke-width="1.200" d="M16.840 769.960h0.001" />
<path fill="none" stroke="#000000" stroke-width="0.500" d="M324.580 208.640L327.580 208.640" />
<path fill="none" stroke="#000000" stroke-width="0.500" d="M318.580 208.640L321.580 208.640" />
<path fill="none" stroke="#000000" stroke-width="0.500" d="M321.580 210.640L324.580 210.640" />
<path fill="none" stroke="#000000" stroke-width="0.500" d="M350.980 199.760L353.980 199.760" />
<path fill="none" stroke="#000000" stroke-width="0.500" d="M344.980 199.760L347.980 199.760" />
<path fill="none" stroke="#000000" stroke-width="0.500" d="M347.980 201.760L350.980 201.760" />
<path fill="none" stroke="#000000" stroke-width="1.000" stroke-dasharray="6.000,6.000" stroke-dashoffset="0.000" d="M520.600 99.960C520.600 99.960 519.400 103.320 528.040 105.720C536.680 108.120 542.200 107.880 542.200 107.880" />
</g>
<g id="X_aaaaaaa_output/ledena_ext.svg">
</g>
<clipPath id="clip_viewBox">
<path d="M-64.492 -862.139L541.201 -862.139L541.201 58.554L-64.492 58.554z" />
</clipPath>
</defs>
<g transform="scale(1,-1)" fill="#000000" stroke="#000000" stroke-linecap="round" stroke-linejoin="round" stroke-miterlimit="10" fill-rule="evenodd" clip-rule="evenodd" clip-path="url(#clip_viewBox)">
<g fill="#cccccc">
<use x="-35.146" y="-831.793" xlink:href="#I_aaaaaaa_output/ledena_ext.svg" />
</g>
<use x="-27.146" y="-1.793" xlink:href="#F_aaaaaaa_output/ledena_ext.svg" />
<use x="-36.146" y="-833.793" xlink:href="#E_aaaaaaa_output/ledena_ext.svg" />
</g>
</svg>
