<?xml version="1.0" encoding="utf-8" standalone="no"?>
<!-- Generated by Therion 6.2.1 (2024-03-20) -->
<!-- Author: Paweł Krawczyk -->
<!-- Title: Ledena pećina u Momče, Montenegro -->
<!DOCTYPE svg PUBLIC "-//W3C//DTD SVG 1.1//EN" "http://www.w3.org/Graphics/SVG/1.1/DTD/svg11.dtd">
<svg width="13.183cm" height="9.197cm" viewBox="-84.392 -42.824 373.693 260.693" xmlns="http://www.w3.org/2000/svg" xmlns:xlink="http://www.w3.org/1999/xlink">
<defs>
<g id="F_aaaaaaa_output/ledena.svg">
<g>
<clipPath id="clip_1_output/ledena.svg">
  <path d="M-3.870 41.570C-2.070 41.360 7.940 38.790 9.750 38.460C11.560 38.130 16.500 36.790 19.180 35.040C21.850 33.290 22.600 31.380 23.940 30.450C25.280 29.510 33.940 28.590 44.160 27.580C54.380 26.570 68.050 27.310 68.890 27.330C69.730 27.340 72.190 30.630 72.650 31.600C73.110 32.570 74.380 35.590 75.070 36.800C75.770 38.020 78.050 38.300 78.400 38.430C78.760 38.550 83.490 42.600 84.680 42.740C85.880 42.890 98.870 41.330 98.870 41.330C99.100 41.933 99.330 42.537 99.560 43.140C99.560 43.140 102.870 52.090 104.060 52.950C105.240 53.810 106.050 55.630 106.750 56.480C107.460 57.330 109.120 58.200 109.120 58.200C109.120 58.200 115.110 59.040 117.270 58.720C119.440 58.400 122.940 57.140 122.940 57.140C122.940 57.140 125.250 55.620 126.230 54.800C127.200 53.980 128.220 50.760 128.480 49.680C128.740 48.610 127.630 43.910 127.680 41.510C127.720 39.110 130.170 30.150 131.250 30.050C132.330 29.950 133.730 32.140 134.780 33.720C135.830 35.300 141.390 39.720 143.080 39.280C144.770 38.830 144.650 25.860 143.830 24.890C143.010 23.910 138.750 20.590 138.750 20.590C138.750 20.590 127.010 6.690 126.600 2.840C126.190 -1.010 132.960 2.960 135.840 2.770C138.730 2.590 153.860 -10.690 157.450 -10.270C161.040 -9.840 165.560 -7.470 170.530 -3.900C175.510 -0.330 181.390 6.150 187.060 10.810C192.740 15.480 193.280 18.730 194.660 21.640C196.050 24.540 199.680 29.050 199.550 29.650C199.420 30.250 195.050 32.930 193.120 33.610C191.180 34.290 181.760 37.360 181.160 37.590C180.560 37.820 179.520 41.640 178.240 46.050C176.960 50.470 180.940 49.110 183.790 51.080C186.630 53.050 191.880 55.070 194.110 57.510C196.340 59.960 196.280 57.070 197.310 59.730C198.340 62.390 206.610 95.190 206.240 95.670C205.870 96.140 206.290 105.510 205.790 106.940C205.280 108.370 203.670 117.700 203.670 117.700C203.670 117.700 203.670 117.700 203.670 117.700C203.670 117.700 216.220 107.740 227.580 109.630C238.950 111.520 277.350 111.640 277.190 120.280C277.030 128.920 281.030 152.640 279.250 158.010C277.470 163.370 273.670 173.740 271.110 176.100C268.540 178.450 230.820 186.990 229.010 187.430C227.200 187.880 202.170 191.130 198.680 191.910C195.180 192.680 174.650 193.380 171.920 191.640C169.190 189.910 162.750 187.510 161.040 183.040C159.320 178.570 157.450 156.810 158.500 152.030C159.540 147.240 165.190 127.670 167.250 126.500C169.320 125.340 182.470 115.390 182.470 115.390C182.470 115.390 182.470 115.390 182.470 115.390C182.470 115.390 183.940 113.610 183.600 112.530C183.260 111.440 182.600 108.430 182.010 107.820C181.420 107.210 174.300 102.510 173.460 102.620C172.620 102.720 167.830 102.150 167.830 102.150C167.830 102.150 166.120 103.920 165.630 104.390C165.140 104.860 164.860 107.140 164.860 107.140C164.860 107.140 165.910 108.600 166.620 108.850C166.620 108.850 166.620 108.850 166.620 108.850C167.887 109.633 169.153 110.417 170.420 111.200C170.173 111.637 169.927 112.073 169.680 112.510C168.327 112.083 166.973 111.657 165.620 111.230C165.620 111.230 165.620 111.230 165.620 111.230C165.620 111.230 158.730 107.500 158.130 107.370C158.130 107.370 158.130 107.370 158.130 107.370C156.433 106.097 154.737 104.823 153.040 103.550C153.407 103.197 153.773 102.843 154.140 102.490C154.140 102.490 158.170 105.450 158.880 105.580C158.880 105.580 158.880 105.580 158.880 105.580C158.880 105.580 161.900 104.920 162.510 104.330C163.120 103.740 164.000 101.720 163.880 101.360C163.770 100.990 162.620 98.210 162.270 97.730C161.920 97.240 158.840 94.900 158.840 94.900C158.840 94.900 158.840 94.900 158.840 94.900C158.840 94.900 148.960 84.510 148.140 83.300C147.320 82.080 134.020 67.910 132.730 66.690C131.430 65.460 129.160 64.580 128.090 64.440C127.010 64.300 124.530 68.450 122.480 69.140C120.430 69.820 118.920 73.510 118.920 73.510C118.920 73.510 116.120 75.260 115.700 78.730C115.270 82.200 120.000 86.370 120.000 86.370C120.000 86.370 120.000 86.370 120.000 86.370C120.100 87.210 133.590 97.430 133.590 97.430C132.620 98.013 131.650 98.597 130.680 99.180C129.260 97.950 116.480 88.350 116.480 88.350C116.480 88.350 116.480 88.350 116.480 88.350C116.480 88.350 105.930 81.190 104.980 80.690C104.030 80.190 101.820 76.310 101.590 75.830C101.360 75.340 97.260 69.620 96.950 67.220C96.630 64.810 97.070 60.740 97.960 58.350C98.840 55.970 95.980 54.840 95.980 54.840C95.980 54.840 95.980 54.840 95.980 54.840C94.850 54.980 76.410 48.830 76.410 48.830C76.410 48.830 76.410 48.830 76.410 48.830C75.810 48.580 68.480 49.040 67.760 49.030C67.040 49.010 22.070 47.210 21.230 47.080C20.390 46.940 -4.210 47.080 -4.210 47.080C-4.210 47.080 -4.210 47.080 -4.210 47.080C-4.690 46.950 -28.950 47.580 -28.950 47.580C-28.847 46.420 -28.743 45.260 -28.640 44.100C-27.320 44.010 -5.680 41.770 -3.870 41.570C-3.870 41.570 -3.870 41.570 -3.870 41.570M96.730 53.530C97.217 53.140 97.703 52.750 98.190 52.360C98.190 52.360 97.970 51.030 96.440 49.560C94.910 48.100 91.900 48.520 90.820 48.380C89.740 48.240 84.140 46.450 83.190 45.840C82.240 45.220 76.230 45.830 75.610 46.410C75.000 47.000 77.990 47.540 77.990 47.540C77.990 47.540 77.990 47.540 77.990 47.540C78.100 48.140 96.730 53.530 96.730 53.530C96.730 53.530 96.730 53.530 96.730 53.530" />
</clipPath>
<g clip-path="url(#clip_1_output/ledena.svg)">
<path fill="none" stroke="#000000" stroke-width="0.350" d="M169.770 184.520L170.442 182.636" />
<path fill="none" stroke="#000000" stroke-width="0.350" d="M167.507 183.253L168.874 181.793" />
<path fill="none" stroke="#000000" stroke-width="0.350" d="M167.679 180.941L169.294 182.121" />
<path fill="none" stroke="#000000" stroke-width="0.350" d="M169.727 179.694L169.368 181.662" />
<path fill="none" stroke="#000000" stroke-width="0.350" d="M172.307 180.076L172.067 182.062" />
<path fill="none" stroke="#000000" stroke-width="0.350" d="M174.681 180.899L173.183 182.224" />
<path fill="none" stroke="#000000" stroke-width="0.350" d="M174.768 183.150L173.619 181.514" />
<path fill="none" stroke="#000000" stroke-width="0.350" d="M172.315 183.981L171.941 182.016" />
<path fill="none" stroke="#000000" stroke-width="0.350" d="M169.770 184.520L168.879 182.729" />
<path fill="none" stroke="#000000" stroke-width="0.500" d="M169.770 184.520C169.770 184.520 166.910 183.510 167.050 182.310C167.190 181.110 168.900 179.470 169.260 179.590C169.620 179.720 172.490 180.130 172.970 180.140C173.450 180.150 174.170 180.160 174.870 181.140C176.990 184.080 170.740 183.940 169.770 184.520" />
<path fill="none" stroke="#000000" stroke-width="0.350" d="M167.830 102.150L168.721 100.360" />
<path fill="none" stroke="#000000" stroke-width="0.350" d="M165.120 100.367L166.281 98.740" />
<path fill="none" stroke="#000000" stroke-width="0.350" d="M162.500 98.450L163.701 96.851" />
<path fill="none" stroke="#000000" stroke-width="0.500" d="M167.830 102.150C166.760 101.650 162.500 98.450 162.500 98.450" />
<path fill="none" stroke="#000000" stroke-width="0.350" d="M133.154 16.215L149.756 25.861" />
<path fill="none" stroke="#000000" stroke-width="0.350" d="M137.216 10.515L141.971 14.790" />
<path fill="none" stroke="#000000" stroke-width="0.350" d="M142.399 5.816L153.478 21.498" />
<path fill="none" stroke="#000000" stroke-width="0.350" d="M148.555 2.497L150.860 8.461" />
<path fill="none" stroke="#000000" stroke-width="0.350" d="M155.346 0.835L157.778 19.881" />
<path fill="none" stroke="#000000" stroke-width="0.350" d="M162.345 0.791L161.825 7.163" />
<path fill="none" stroke="#000000" stroke-width="0.350" d="M169.229 2.075L164.553 20.698" />
<path fill="none" stroke="#000000" stroke-width="0.350" d="M175.855 4.354L173.529 10.310" />
<path fill="none" stroke="#000000" stroke-width="0.350" d="M182.187 7.359L173.497 24.480" />
<path fill="none" stroke="#000000" stroke-width="0.350" d="M188.235 10.898L184.915 16.362" />
<path fill="none" stroke="#000000" stroke-width="0.350" d="M194.032 14.844L183.076 30.611" />
<path fill="none" stroke="#000000" stroke-width="0.350" d="M273.574 170.915L265.565 153.465" />
<path fill="none" stroke="#000000" stroke-width="0.350" d="M266.588 174.153L264.117 168.256" />
<path fill="none" stroke="#000000" stroke-width="0.350" d="M259.485 177.139L252.745 159.161" />
<path fill="none" stroke="#000000" stroke-width="0.350" d="M252.271 179.836L250.285 173.759" />
<path fill="none" stroke="#000000" stroke-width="0.350" d="M244.938 182.202L239.863 163.684" />
<path fill="none" stroke="#000000" stroke-width="0.350" d="M237.496 184.183L236.146 177.934" />
<path fill="none" stroke="#000000" stroke-width="0.350" d="M229.949 185.721L227.079 166.737" />
<path fill="none" stroke="#000000" stroke-width="0.350" d="M222.317 186.744L221.815 180.370" />
<path fill="none" stroke="#000000" stroke-width="0.350" d="M214.625 187.172L214.683 167.971" />
<path fill="none" stroke="#000000" stroke-width="0.350" d="M206.929 186.915L207.538 180.551" />
<path fill="none" stroke="#000000" stroke-width="0.350" d="M199.300 185.889L203.094 167.067" />
<path fill="none" stroke="#000000" stroke-width="0.350" d="M191.830 184.016L193.796 177.933" />
<path fill="none" stroke="#000000" stroke-width="0.350" d="M184.645 181.254L192.720 163.834" />
<path fill="none" stroke="#000000" stroke-width="0.350" d="M177.870 177.599L181.264 172.180" />
<path fill="none" stroke="#000000" stroke-width="0.350" d="M171.623 173.098L183.770 158.228" />
<path fill="none" stroke="#000000" stroke-width="0.350" d="M166.000 167.842L170.617 163.420" />
<path fill="none" stroke="#000000" stroke-width="0.350" d="M161.058 161.937L176.383 150.371" />
<path fill="none" stroke="#000000" stroke-width="0.350" d="M156.843 155.495L162.354 152.253" />
<path fill="none" stroke="#000000" stroke-width="0.350" d="M153.423 148.598L171.065 141.020" />
<path fill="none" stroke="#000000" stroke-width="0.350" d="M75.300 37.410L73.357 37.885" />
<path fill="none" stroke="#000000" stroke-width="0.350" d="M75.620 40.396L73.621 40.473" />
<path fill="none" stroke="#000000" stroke-width="0.350" d="M75.665 43.403L73.665 43.395" />
<path fill="none" stroke="#000000" stroke-width="0.350" d="M75.610 46.410L73.611 46.339" />
<path fill="none" stroke="#000000" stroke-width="0.500" d="M75.300 37.410C75.860 39.460 75.610 46.410 75.610 46.410" />
<path fill="none" stroke="#000000" stroke-width="0.350" d="M98.080 51.640L99.846 52.579" />
<path fill="none" stroke="#000000" stroke-width="0.350" d="M100.535 49.296L101.388 51.105" />
<path fill="none" stroke="#000000" stroke-width="0.350" d="M103.890 49.220L103.266 51.120" />
<path fill="none" stroke="#000000" stroke-width="0.500" d="M98.080 51.640C98.080 51.640 100.070 47.830 103.890 49.220" />
<path fill="none" stroke="#000000" stroke-width="0.350" d="M117.050 57.870L115.338 58.904" />
<path fill="none" stroke="#000000" stroke-width="0.350" d="M118.351 60.189L116.584 61.126" />
<path fill="none" stroke="#000000" stroke-width="0.350" d="M119.546 62.564L117.740 63.422" />
<path fill="none" stroke="#000000" stroke-width="0.350" d="M120.619 64.996L118.767 65.751" />
<path fill="none" stroke="#000000" stroke-width="0.350" d="M121.515 67.499L119.606 68.095" />
<path fill="none" stroke="#000000" stroke-width="0.350" d="M122.100 70.090L120.122 70.383" />
<path fill="none" stroke="#000000" stroke-width="0.500" d="M117.050 57.870C117.050 57.870 121.470 65.160 122.100 70.090" />
<path fill="none" stroke="#000000" stroke-width="0.350" d="M1.620 49.710L3.607 49.483" />
<path fill="none" stroke="#000000" stroke-width="0.350" d="M1.304 46.672L3.295 46.482" />
<path fill="none" stroke="#000000" stroke-width="0.350" d="M1.041 43.629L3.035 43.478" />
<path fill="none" stroke="#000000" stroke-width="0.350" d="M0.863 40.580L2.862 40.509" />
<path fill="none" stroke="#000000" stroke-width="0.350" d="M1.120 37.580L2.546 38.982" />
<path fill="none" stroke="#000000" stroke-width="0.500" d="M1.620 49.710C1.620 49.710 0.280 38.040 1.120 37.580" />
<path fill="none" stroke="#000000" stroke-width="0.500" d="M25.100 35.280L28.100 37.080L24.100 38.280Z" />
<path fill="none" stroke="#000000" stroke-width="0.500" d="M30.100 35.280L32.100 38.280L29.100 38.280Z" />
<path fill="none" stroke="#000000" stroke-width="0.500" d="M27.100 39.280L30.100 42.280L26.100 42.280Z" />
<path fill="none" stroke="#000000" stroke-width="0.500" d="M42.740 35.370L45.740 37.170L41.740 38.370Z" />
<path fill="none" stroke="#000000" stroke-width="0.500" d="M47.740 35.370L49.740 38.370L46.740 38.370Z" />
<path fill="none" stroke="#000000" stroke-width="0.500" d="M44.740 39.370L47.740 42.370L43.740 42.370Z" />
<path fill="none" stroke="#000000" stroke-width="0.500" d="M61.150 32.720L64.150 34.520L60.150 35.720Z" />
<path fill="none" stroke="#000000" stroke-width="0.500" d="M66.150 32.720L68.150 35.720L65.150 35.720Z" />
<path fill="none" stroke="#000000" stroke-width="0.500" d="M63.150 36.720L66.150 39.720L62.150 39.720Z" />
<path fill="none" stroke="#000000" stroke-width="0.500" d="M151.620 28.050L154.620 29.850L150.620 31.050Z" />
<path fill="none" stroke="#000000" stroke-width="0.500" d="M156.620 28.050L158.620 31.050L155.620 31.050Z" />
<path fill="none" stroke="#000000" stroke-width="0.500" d="M153.620 32.050L156.620 35.050L152.620 35.050Z" />
<path fill="none" stroke="#000000" stroke-width="0.500" d="M168.660 34.370L171.660 36.170L167.660 37.370Z" />
<path fill="none" stroke="#000000" stroke-width="0.500" d="M173.660 34.370L175.660 37.370L172.660 37.370Z" />
<path fill="none" stroke="#000000" stroke-width="0.500" d="M170.660 38.370L173.660 41.370L169.660 41.370Z" />
<path fill="none" stroke="#000000" stroke-width="0.500" d="M152.110 53.020L155.110 54.820L151.110 56.020Z" />
<path fill="none" stroke="#000000" stroke-width="0.500" d="M157.110 53.020L159.110 56.020L156.110 56.020Z" />
<path fill="none" stroke="#000000" stroke-width="0.500" d="M154.110 57.020L157.110 60.020L153.110 60.020Z" />
<path fill="none" stroke="#000000" stroke-width="0.350" d="M207.580 94.370L206.648 92.601" />
<path fill="none" stroke="#000000" stroke-width="0.350" d="M205.197 95.626L204.264 93.856" />
<path fill="none" stroke="#000000" stroke-width="0.350" d="M202.814 96.882L201.881 95.112" />
<path fill="none" stroke="#000000" stroke-width="0.350" d="M200.430 98.138L199.498 96.368" />
<path fill="none" stroke="#000000" stroke-width="0.350" d="M198.047 99.393L197.114 97.624" />
<path fill="none" stroke="#000000" stroke-width="0.350" d="M195.664 100.649L194.731 98.880" />
<path fill="none" stroke="#000000" stroke-width="0.350" d="M193.280 101.905L192.348 100.136" />
<path fill="none" stroke="#000000" stroke-width="0.350" d="M190.897 103.161L189.964 101.391" />
<path fill="none" stroke="#000000" stroke-width="0.350" d="M188.514 104.416L187.581 102.647" />
<path fill="none" stroke="#000000" stroke-width="0.350" d="M186.130 105.673L185.198 103.903" />
<path fill="none" stroke="#000000" stroke-width="0.350" d="M183.747 106.928L182.815 105.159" />
<path fill="none" stroke="#000000" stroke-width="0.350" d="M181.364 108.184L180.431 106.415" />
<path fill="none" stroke="#000000" stroke-width="0.350" d="M178.980 109.440L178.048 107.671" />
<path fill="none" stroke="#000000" stroke-width="0.500" d="M207.580 94.370L178.980 109.440" />
</g>
</g>
</g>
<g id="G_aaaaaaa_output/ledena.svg">
</g>
<g id="B_aaaaaaa_output/ledena.svg">
<path fill="none" stroke="inherit" stroke-width="0.350" d="M26.130 52.570C27.930 52.360 37.940 49.790 39.750 49.460C41.560 49.130 46.500 47.790 49.180 46.040C51.850 44.290 52.600 42.380 53.940 41.450C55.280 40.510 63.940 39.590 74.160 38.580C84.380 37.570 98.050 38.310 98.890 38.330C99.730 38.340 102.190 41.630 102.650 42.600C103.110 43.570 104.380 46.590 105.070 47.800C105.770 49.020 108.050 49.300 108.400 49.430C108.760 49.550 113.490 53.600 114.680 53.740C115.880 53.890 128.870 52.330 128.870 52.330L129.560 54.140C129.560 54.140 132.870 63.090 134.060 63.950C135.240 64.810 136.050 66.630 136.750 67.480C137.460 68.330 139.120 69.200 139.120 69.200C139.120 69.200 145.110 70.040 147.270 69.720C149.440 69.400 152.940 68.140 152.940 68.140C152.940 68.140 155.250 66.620 156.230 65.800C157.200 64.980 158.220 61.760 158.480 60.680C158.740 59.610 157.630 54.910 157.680 52.510C157.720 50.110 160.170 41.150 161.250 41.050C162.330 40.950 163.730 43.140 164.780 44.720C165.830 46.300 171.390 50.720 173.080 50.280C174.770 49.830 174.650 36.860 173.830 35.890C173.010 34.910 168.750 31.590 168.750 31.590C168.750 31.590 157.010 17.690 156.600 13.840C156.190 9.990 162.960 13.960 165.840 13.770C168.730 13.590 183.860 0.310 187.450 0.730C191.040 1.160 195.560 3.530 200.530 7.100C205.510 10.670 211.390 17.150 217.060 21.810C222.740 26.480 223.280 29.730 224.660 32.640C226.050 35.540 229.680 40.050 229.550 40.650C229.420 41.250 225.050 43.930 223.120 44.610C221.180 45.290 211.760 48.360 211.160 48.590C210.560 48.820 209.520 52.640 208.240 57.050C206.960 61.470 210.940 60.110 213.790 62.080C216.630 64.050 221.880 66.070 224.110 68.510C226.340 70.960 226.280 68.070 227.310 70.730C228.340 73.390 236.610 106.190 236.240 106.670C235.870 107.140 236.290 116.510 235.790 117.940C235.280 119.370 233.670 128.700 233.670 128.700" />
<path fill="none" stroke="inherit" stroke-width="0.350" d="M212.470 126.390C212.470 126.390 213.940 124.610 213.600 123.530C213.260 122.440 212.600 119.430 212.010 118.820C211.420 118.210 204.300 113.510 203.460 113.620C202.620 113.720 197.830 113.150 197.830 113.150C197.830 113.150 196.120 114.920 195.630 115.390C195.140 115.860 194.860 118.140 194.860 118.140C194.860 118.140 195.910 119.600 196.620 119.850" />
<path fill="none" stroke="inherit" stroke-width="0.350" d="M196.620 119.850L200.420 122.200" />
<path fill="none" stroke="inherit" stroke-width="0.350" d="M199.680 123.510L195.620 122.230" />
<path fill="none" stroke="inherit" stroke-width="0.350" d="M195.620 122.230C195.620 122.230 188.730 118.500 188.130 118.370" />
<path fill="none" stroke="inherit" stroke-width="0.350" d="M188.130 118.370L183.040 114.550" />
<path fill="none" stroke="inherit" stroke-width="0.350" d="M184.140 113.490C184.140 113.490 188.170 116.450 188.880 116.580" />
<path fill="none" stroke="inherit" stroke-width="0.350" d="M188.880 116.580C188.880 116.580 191.900 115.920 192.510 115.330C193.120 114.740 194.000 112.720 193.880 112.360C193.770 111.990 192.620 109.210 192.270 108.730C191.920 108.240 188.840 105.900 188.840 105.900" />
<path fill="none" stroke="inherit" stroke-width="0.350" d="M188.840 105.900C188.840 105.900 178.960 95.510 178.140 94.300C177.320 93.080 164.020 78.910 162.730 77.690C161.430 76.460 159.160 75.580 158.090 75.440C157.010 75.300 154.530 79.450 152.480 80.140C150.430 80.820 148.920 84.510 148.920 84.510C148.920 84.510 146.120 86.260 145.700 89.730C145.270 93.200 150.000 97.370 150.000 97.370" />
<path fill="none" stroke="inherit" stroke-width="0.350" d="M150.000 97.370C150.100 98.210 163.590 108.430 163.590 108.430" />
<path fill="none" stroke="inherit" stroke-width="0.350" d="M160.680 110.180C159.260 108.950 146.480 99.350 146.480 99.350" />
<path fill="none" stroke="inherit" stroke-width="0.350" d="M146.480 99.350C146.480 99.350 135.930 92.190 134.980 91.690C134.030 91.190 131.820 87.310 131.590 86.830C131.360 86.340 127.260 80.620 126.950 78.220C126.630 75.810 127.070 71.740 127.960 69.350C128.840 66.970 125.980 65.840 125.980 65.840" />
<path fill="none" stroke="inherit" stroke-width="0.350" d="M125.980 65.840C124.850 65.980 106.410 59.830 106.410 59.830" />
<path fill="none" stroke="inherit" stroke-width="0.350" d="M106.410 59.830C105.810 59.580 98.480 60.040 97.760 60.030C97.040 60.010 52.070 58.210 51.230 58.080C50.390 57.940 25.790 58.080 25.790 58.080" />
<path fill="none" stroke="inherit" stroke-width="0.350" d="M25.790 58.080C25.310 57.950 1.050 58.580 1.050 58.580" />
<path fill="none" stroke="inherit" stroke-width="0.350" d="M1.360 55.100C2.680 55.010 24.320 52.770 26.130 52.570" />
<path fill="none" stroke="inherit" stroke-width="0.350" d="M126.730 64.530L128.190 63.360C128.190 63.360 127.970 62.030 126.440 60.560C124.910 59.100 121.900 59.520 120.820 59.380C119.740 59.240 114.140 57.450 113.190 56.840C112.240 56.220 106.230 56.830 105.610 57.410C105.000 58.000 107.990 58.540 107.990 58.540" />
<path fill="none" stroke="inherit" stroke-width="0.350" d="M107.990 58.540C108.100 59.140 126.730 64.530 126.730 64.530" />
</g>
<g id="I_aaaaaaa_output/ledena.svg">
<path fill="inherit" stroke="none" d="M25.130 52.570C26.930 52.360 36.940 49.790 38.750 49.460C40.560 49.130 45.500 47.790 48.180 46.040C50.850 44.290 51.600 42.380 52.940 41.450C54.280 40.510 62.940 39.590 73.160 38.580C83.380 37.570 97.050 38.310 97.890 38.330C98.730 38.340 101.190 41.630 101.650 42.600C102.110 43.570 103.380 46.590 104.070 47.800C104.770 49.020 107.050 49.300 107.400 49.430C107.760 49.550 112.490 53.600 113.680 53.740C114.880 53.890 127.870 52.330 127.870 52.330C128.100 52.933 128.330 53.537 128.560 54.140C128.560 54.140 131.870 63.090 133.060 63.950C134.240 64.810 135.050 66.630 135.750 67.480C136.460 68.330 138.120 69.200 138.120 69.200C138.120 69.200 144.110 70.040 146.270 69.720C148.440 69.400 151.940 68.140 151.940 68.140C151.940 68.140 154.250 66.620 155.230 65.800C156.200 64.980 157.220 61.760 157.480 60.680C157.740 59.610 156.630 54.910 156.680 52.510C156.720 50.110 159.170 41.150 160.250 41.050C161.330 40.950 162.730 43.140 163.780 44.720C164.830 46.300 170.390 50.720 172.080 50.280C173.770 49.830 173.650 36.860 172.830 35.890C172.010 34.910 167.750 31.590 167.750 31.590C167.750 31.590 156.010 17.690 155.600 13.840C155.190 9.990 161.960 13.960 164.840 13.770C167.730 13.590 182.860 0.310 186.450 0.730C190.040 1.160 194.560 3.530 199.530 7.100C204.510 10.670 210.390 17.150 216.060 21.810C221.740 26.480 222.280 29.730 223.660 32.640C225.050 35.540 228.680 40.050 228.550 40.650C228.420 41.250 224.050 43.930 222.120 44.610C220.180 45.290 210.760 48.360 210.160 48.590C209.560 48.820 208.520 52.640 207.240 57.050C205.960 61.470 209.940 60.110 212.790 62.080C215.630 64.050 220.880 66.070 223.110 68.510C225.340 70.960 225.280 68.070 226.310 70.730C227.340 73.390 235.610 106.190 235.240 106.670C234.870 107.140 235.290 116.510 234.790 117.940C234.280 119.370 232.670 128.700 232.670 128.700C232.670 128.700 232.670 128.700 232.670 128.700C232.670 128.700 245.220 118.740 256.580 120.630C267.950 122.520 306.350 122.640 306.190 131.280C306.030 139.920 310.030 163.640 308.250 169.010C306.470 174.370 302.670 184.740 300.110 187.100C297.540 189.450 259.820 197.990 258.010 198.430C256.200 198.880 231.170 202.130 227.680 202.910C224.180 203.680 203.650 204.380 200.920 202.640C198.190 200.910 191.750 198.510 190.040 194.040C188.320 189.570 186.450 167.810 187.500 163.030C188.540 158.240 194.190 138.670 196.250 137.500C198.320 136.340 211.470 126.390 211.470 126.390C211.470 126.390 211.470 126.390 211.470 126.390C211.470 126.390 212.940 124.610 212.600 123.530C212.260 122.440 211.600 119.430 211.010 118.820C210.420 118.210 203.300 113.510 202.460 113.620C201.620 113.720 196.830 113.150 196.830 113.150C196.830 113.150 195.120 114.920 194.630 115.390C194.140 115.860 193.860 118.140 193.860 118.140C193.860 118.140 194.910 119.600 195.620 119.850C195.620 119.850 195.620 119.850 195.620 119.850C196.887 120.633 198.153 121.417 199.420 122.200C199.173 122.637 198.927 123.073 198.680 123.510C197.327 123.083 195.973 122.657 194.620 122.230C194.620 122.230 194.620 122.230 194.620 122.230C194.620 122.230 187.730 118.500 187.130 118.370C187.130 118.370 187.130 118.370 187.130 118.370C185.433 117.097 183.737 115.823 182.040 114.550C182.407 114.197 182.773 113.843 183.140 113.490C183.140 113.490 187.170 116.450 187.880 116.580C187.880 116.580 187.880 116.580 187.880 116.580C187.880 116.580 190.900 115.920 191.510 115.330C192.120 114.740 193.000 112.720 192.880 112.360C192.770 111.990 191.620 109.210 191.270 108.730C190.920 108.240 187.840 105.900 187.840 105.900C187.840 105.900 187.840 105.900 187.840 105.900C187.840 105.900 177.960 95.510 177.140 94.300C176.320 93.080 163.020 78.910 161.730 77.690C160.430 76.460 158.160 75.580 157.090 75.440C156.010 75.300 153.530 79.450 151.480 80.140C149.430 80.820 147.920 84.510 147.920 84.510C147.920 84.510 145.120 86.260 144.700 89.730C144.270 93.200 149.000 97.370 149.000 97.370C149.000 97.370 149.000 97.370 149.000 97.370C149.100 98.210 162.590 108.430 162.590 108.430C161.620 109.013 160.650 109.597 159.680 110.180C158.260 108.950 145.480 99.350 145.480 99.350C145.480 99.350 145.480 99.350 145.480 99.350C145.480 99.350 134.930 92.190 133.980 91.690C133.030 91.190 130.820 87.310 130.590 86.830C130.360 86.340 126.260 80.620 125.950 78.220C125.630 75.810 126.070 71.740 126.960 69.350C127.840 66.970 124.980 65.840 124.980 65.840C124.980 65.840 124.980 65.840 124.980 65.840C123.850 65.980 105.410 59.830 105.410 59.830C105.410 59.830 105.410 59.830 105.410 59.830C104.810 59.580 97.480 60.040 96.760 60.030C96.040 60.010 51.070 58.210 50.230 58.080C49.390 57.940 24.790 58.080 24.790 58.080C24.790 58.080 24.790 58.080 24.790 58.080C24.310 57.950 0.050 58.580 0.050 58.580C0.153 57.420 0.257 56.260 0.360 55.100C1.680 55.010 23.320 52.770 25.130 52.570C25.130 52.570 25.130 52.570 25.130 52.570M125.730 64.530C126.217 64.140 126.703 63.750 127.190 63.360C127.190 63.360 126.970 62.030 125.440 60.560C123.910 59.100 120.900 59.520 119.820 59.380C118.740 59.240 113.140 57.450 112.190 56.840C111.240 56.220 105.230 56.830 104.610 57.410C104.000 58.000 106.990 58.540 106.990 58.540C106.990 58.540 106.990 58.540 106.990 58.540C107.100 59.140 125.730 64.530 125.730 64.530C125.730 64.530 125.730 64.530 125.730 64.530Z" />
</g>
<g id="E_aaaaaaa_output/ledena.svg">
<path fill="none" stroke="#000000" stroke-width="1.000" d="M219.470 126.390C219.470 126.390 220.940 124.610 220.600 123.530C220.260 122.440 219.600 119.430 219.010 118.820C218.420 118.210 211.300 113.510 210.460 113.620C209.620 113.720 204.830 113.150 204.830 113.150C204.830 113.150 203.120 114.920 202.630 115.390C202.140 115.860 201.860 118.140 201.860 118.140C201.860 118.140 202.910 119.600 203.620 119.850" />
<path fill="none" stroke="#000000" stroke-width="1.000" stroke-dasharray="6.000,6.000" stroke-dashoffset="0.000" d="M203.620 119.850L207.420 122.200" />
<path fill="none" stroke="#000000" stroke-width="1.000" stroke-dasharray="6.000,6.000" stroke-dashoffset="0.000" d="M206.680 123.510L202.620 122.230" />
<path fill="none" stroke="#000000" stroke-width="1.000" d="M202.620 122.230C202.620 122.230 195.730 118.500 195.130 118.370" />
<path fill="none" stroke="#000000" stroke-width="1.000" d="M33.130 52.570C31.320 52.770 9.680 55.010 8.360 55.100" />
<path fill="none" stroke="#000000" stroke-width="1.000" d="M32.790 58.080C32.310 57.950 8.050 58.580 8.050 58.580" />
<path fill="none" stroke="#000000" stroke-width="1.000" d="M33.130 52.570C34.930 52.360 44.940 49.790 46.750 49.460C48.560 49.130 53.500 47.790 56.180 46.040C58.850 44.290 59.600 42.380 60.940 41.450C62.280 40.510 70.940 39.590 81.160 38.580C91.380 37.570 105.050 38.310 105.890 38.330C106.730 38.340 109.190 41.630 109.650 42.600C110.110 43.570 111.380 46.590 112.070 47.800C112.770 49.020 115.050 49.300 115.400 49.430C115.760 49.550 120.490 53.600 121.680 53.740C122.880 53.890 135.870 52.330 135.870 52.330L136.560 54.140C136.560 54.140 139.870 63.090 141.060 63.950C142.240 64.810 143.050 66.630 143.750 67.480C144.460 68.330 146.120 69.200 146.120 69.200C146.120 69.200 152.110 70.040 154.270 69.720C156.440 69.400 159.940 68.140 159.940 68.140C159.940 68.140 162.250 66.620 163.230 65.800C164.200 64.980 165.220 61.760 165.480 60.680C165.740 59.610 164.630 54.910 164.680 52.510C164.720 50.110 167.170 41.150 168.250 41.050C169.330 40.950 170.730 43.140 171.780 44.720C172.830 46.300 178.390 50.720 180.080 50.280C181.770 49.830 181.650 36.860 180.830 35.890C180.010 34.910 175.750 31.590 175.750 31.590C175.750 31.590 164.010 17.690 163.600 13.840C163.190 9.990 169.960 13.960 172.840 13.770C175.730 13.590 190.860 0.310 194.450 0.730C198.040 1.160 202.560 3.530 207.530 7.100C212.510 10.670 218.390 17.150 224.060 21.810C229.740 26.480 230.280 29.730 231.660 32.640C233.050 35.540 236.680 40.050 236.550 40.650C236.420 41.250 232.050 43.930 230.120 44.610C228.180 45.290 218.760 48.360 218.160 48.590C217.560 48.820 216.520 52.640 215.240 57.050C213.960 61.470 217.940 60.110 220.790 62.080C223.630 64.050 228.880 66.070 231.110 68.510C233.340 70.960 233.280 68.070 234.310 70.730C235.340 73.390 243.610 106.190 243.240 106.670C242.870 107.140 243.290 116.510 242.790 117.940C242.280 119.370 240.670 128.700 240.670 128.700" />
<path fill="none" stroke="#000000" stroke-width="1.000" d="M113.410 59.830C112.810 59.580 105.480 60.040 104.760 60.030C104.040 60.010 59.070 58.210 58.230 58.080C57.390 57.940 32.790 58.080 32.790 58.080" />
<path fill="none" stroke="#000000" stroke-width="1.000" stroke-dasharray="6.000,6.000" stroke-dashoffset="0.000" d="M132.980 65.840C131.850 65.980 113.410 59.830 113.410 59.830" />
<path fill="none" stroke="#000000" stroke-width="1.000" stroke-dasharray="6.000,6.000" stroke-dashoffset="0.000" d="M114.990 58.540C115.100 59.140 133.730 64.530 133.730 64.530" />
<path fill="none" stroke="#000000" stroke-width="1.000" d="M133.730 64.530L135.190 63.360C135.190 63.360 134.970 62.030 133.440 60.560C131.910 59.100 128.900 59.520 127.820 59.380C126.740 59.240 121.140 57.450 120.190 56.840C119.240 56.220 113.230 56.830 112.610 57.410C112.000 58.000 114.990 58.540 114.990 58.540" />
<path fill="none" stroke="#000000" stroke-width="1.000" stroke-dasharray="6.000,6.000" stroke-dashoffset="0.000" d="M167.680 110.180C166.260 108.950 153.480 99.350 153.480 99.350" />
<path fill="none" stroke="#000000" stroke-width="1.000" stroke-dasharray="6.000,6.000" stroke-dashoffset="0.000" d="M157.000 97.370C157.100 98.210 170.590 108.430 170.590 108.430" />
<path fill="none" stroke="#000000" stroke-width="1.000" d="M153.480 99.350C153.480 99.350 142.930 92.190 141.980 91.690C141.030 91.190 138.820 87.310 138.590 86.830C138.360 86.340 134.260 80.620 133.950 78.220C133.630 75.810 134.070 71.740 134.960 69.350C135.840 66.970 132.980 65.840 132.980 65.840" />
<path fill="none" stroke="#000000" stroke-width="0.500" d="M0.940 59.980C0.940 61.313 2.940 61.313 2.940 59.980C2.940 59.049 1.940 58.411 1.940 57.480" />
<path fill="none" stroke="#000000" stroke-width="1.200" d="M1.940 55.980h0.001" />
<path fill="none" stroke="#000000" stroke-width="0.500" d="M44.170 61.110L47.170 61.110" />
<path fill="none" stroke="#000000" stroke-width="0.500" d="M38.170 61.110L41.170 61.110" />
<path fill="none" stroke="#000000" stroke-width="0.500" d="M41.170 63.110L44.170 63.110" />
<path fill="none" stroke="#000000" stroke-width="0.500" d="M42.890 46.320L45.890 46.320" />
<path fill="none" stroke="#000000" stroke-width="0.500" d="M36.890 46.320L39.890 46.320" />
<path fill="none" stroke="#000000" stroke-width="0.500" d="M39.890 48.320L42.890 48.320" />
<path fill="none" stroke="#000000" stroke-width="1.000" d="M195.840 105.900C195.840 105.900 185.960 95.510 185.140 94.300C184.320 93.080 171.020 78.910 169.730 77.690C168.430 76.460 166.160 75.580 165.090 75.440C164.010 75.300 161.530 79.450 159.480 80.140C157.430 80.820 155.920 84.510 155.920 84.510C155.920 84.510 153.120 86.260 152.700 89.730C152.270 93.200 157.000 97.370 157.000 97.370" />
<path fill="none" stroke="#000000" stroke-width="0.350" d="M240.670 128.700L241.907 130.272" />
<path fill="none" stroke="#000000" stroke-width="0.350" d="M242.709 127.240L243.819 128.904" />
<path fill="none" stroke="#000000" stroke-width="0.350" d="M244.827 125.894L245.853 127.610" />
<path fill="none" stroke="#000000" stroke-width="0.350" d="M247.008 124.655L247.949 126.419" />
<path fill="none" stroke="#000000" stroke-width="0.350" d="M249.250 123.530L250.098 125.342" />
<path fill="none" stroke="#000000" stroke-width="0.350" d="M251.552 122.535L252.293 124.393" />
<path fill="none" stroke="#000000" stroke-width="0.350" d="M253.915 121.691L254.530 123.595" />
<path fill="none" stroke="#000000" stroke-width="0.350" d="M256.333 121.027L256.799 122.972" />
<path fill="none" stroke="#000000" stroke-width="0.350" d="M258.801 120.580L259.086 122.559" />
<path fill="none" stroke="#000000" stroke-width="0.350" d="M261.301 120.394L261.371 122.393" />
<path fill="none" stroke="#000000" stroke-width="0.350" d="M263.805 120.519L263.621 122.511" />
<path fill="none" stroke="#000000" stroke-width="0.350" d="M266.288 120.877L266.049 122.863" />
<path fill="none" stroke="#000000" stroke-width="0.350" d="M268.781 121.159L268.586 123.149" />
<path fill="none" stroke="#000000" stroke-width="0.350" d="M271.279 121.394L271.106 123.386" />
<path fill="none" stroke="#000000" stroke-width="0.350" d="M273.778 121.606L273.616 123.599" />
<path fill="none" stroke="#000000" stroke-width="0.350" d="M276.279 121.807L276.121 123.801" />
<path fill="none" stroke="#000000" stroke-width="0.350" d="M278.780 122.006L278.620 123.999" />
<path fill="none" stroke="#000000" stroke-width="0.350" d="M281.281 122.208L281.116 124.201" />
<path fill="none" stroke="#000000" stroke-width="0.350" d="M283.781 122.417L283.608 124.410" />
<path fill="none" stroke="#000000" stroke-width="0.350" d="M286.280 122.640L286.095 124.631" />
<path fill="none" stroke="#000000" stroke-width="0.350" d="M288.777 122.879L288.577 124.869" />
<path fill="none" stroke="#000000" stroke-width="0.350" d="M291.273 123.141L291.053 125.129" />
<path fill="none" stroke="#000000" stroke-width="0.350" d="M293.764 123.431L293.520 125.416" />
<path fill="none" stroke="#000000" stroke-width="0.350" d="M296.252 123.755L295.978 125.736" />
<path fill="none" stroke="#000000" stroke-width="0.350" d="M298.733 124.122L298.422 126.098" />
<path fill="none" stroke="#000000" stroke-width="0.350" d="M301.207 124.545L300.847 126.513" />
<path fill="none" stroke="#000000" stroke-width="0.350" d="M303.665 125.041L303.243 126.996" />
<path fill="none" stroke="#000000" stroke-width="0.350" d="M306.103 125.635L305.593 127.569" />
<path fill="none" stroke="#000000" stroke-width="0.350" d="M308.500 126.372L307.860 128.267" />
<path fill="none" stroke="#000000" stroke-width="0.350" d="M310.815 127.334L309.963 129.144" />
<path fill="none" stroke="#000000" stroke-width="0.350" d="M312.908 128.704L311.648 130.257" />
<path fill="none" stroke="#000000" stroke-width="0.350" d="M314.161 130.818L312.233 131.351" />
<path fill="none" stroke="#000000" stroke-width="0.350" d="M314.215 133.326L312.217 133.410" />
<path fill="none" stroke="#000000" stroke-width="0.350" d="M314.349 135.830L312.354 135.972" />
<path fill="none" stroke="#000000" stroke-width="0.350" d="M314.541 138.332L312.548 138.504" />
<path fill="none" stroke="#000000" stroke-width="0.350" d="M314.766 140.831L312.775 141.021" />
<path fill="none" stroke="#000000" stroke-width="0.350" d="M315.010 143.327L313.020 143.527" />
<path fill="none" stroke="#000000" stroke-width="0.350" d="M315.264 145.823L313.274 146.027" />
<path fill="none" stroke="#000000" stroke-width="0.350" d="M315.520 148.319L313.530 148.523" />
<path fill="none" stroke="#000000" stroke-width="0.350" d="M315.772 150.815L313.782 151.013" />
<path fill="none" stroke="#000000" stroke-width="0.350" d="M316.015 153.312L314.024 153.500" />
<path fill="none" stroke="#000000" stroke-width="0.350" d="M316.240 155.811L314.248 155.982" />
<path fill="none" stroke="#000000" stroke-width="0.350" d="M316.439 158.312L314.445 158.459" />
<path fill="none" stroke="#000000" stroke-width="0.350" d="M316.599 160.815L314.602 160.925" />
<path fill="none" stroke="#000000" stroke-width="0.350" d="M316.695 163.322L314.696 163.374" />
<path fill="none" stroke="#000000" stroke-width="0.350" d="M316.683 165.830L314.683 165.774" />
<path fill="none" stroke="#000000" stroke-width="0.350" d="M316.428 168.324L314.456 167.989" />
<path fill="none" stroke="#000000" stroke-width="0.350" d="M315.673 170.714L313.783 170.059" />
<path fill="none" stroke="#000000" stroke-width="0.350" d="M314.837 173.080L312.957 172.397" />
<path fill="none" stroke="#000000" stroke-width="0.350" d="M313.965 175.432L312.096 174.720" />
<path fill="none" stroke="#000000" stroke-width="0.350" d="M313.052 177.769L311.197 177.021" />
<path fill="none" stroke="#000000" stroke-width="0.350" d="M312.087 180.084L310.252 179.291" />
<path fill="none" stroke="#000000" stroke-width="0.350" d="M311.051 182.369L309.245 181.509" />
<path fill="none" stroke="#000000" stroke-width="0.350" d="M309.900 184.598L308.154 183.623" />
<path fill="none" stroke="#000000" stroke-width="0.350" d="M308.509 186.681L306.957 185.419" />
<path fill="none" stroke="#000000" stroke-width="0.350" d="M306.391 187.962L305.690 186.090" />
<path fill="none" stroke="#000000" stroke-width="0.350" d="M304.024 188.790L303.418 186.884" />
<path fill="none" stroke="#000000" stroke-width="0.350" d="M301.626 189.529L301.062 187.610" />
<path fill="none" stroke="#000000" stroke-width="0.350" d="M299.216 190.224L298.677 188.298" />
<path fill="none" stroke="#000000" stroke-width="0.350" d="M296.797 190.892L296.275 188.961" />
<path fill="none" stroke="#000000" stroke-width="0.350" d="M294.373 191.539L293.864 189.605" />
<path fill="none" stroke="#000000" stroke-width="0.350" d="M291.946 192.172L291.447 190.235" />
<path fill="none" stroke="#000000" stroke-width="0.350" d="M289.516 192.793L289.025 190.855" />
<path fill="none" stroke="#000000" stroke-width="0.350" d="M287.082 193.405L286.598 191.464" />
<path fill="none" stroke="#000000" stroke-width="0.350" d="M284.648 194.008L284.170 192.066" />
<path fill="none" stroke="#000000" stroke-width="0.350" d="M282.210 194.604L281.737 192.661" />
<path fill="none" stroke="#000000" stroke-width="0.350" d="M279.772 195.194L279.304 193.249" />
<path fill="none" stroke="#000000" stroke-width="0.350" d="M277.332 195.778L276.868 193.832" />
<path fill="none" stroke="#000000" stroke-width="0.350" d="M274.891 196.357L274.430 194.411" />
<path fill="none" stroke="#000000" stroke-width="0.350" d="M272.449 196.931L271.992 194.984" />
<path fill="none" stroke="#000000" stroke-width="0.350" d="M270.006 197.502L269.552 195.554" />
<path fill="none" stroke="#000000" stroke-width="0.350" d="M267.562 198.069L267.111 196.120" />
<path fill="none" stroke="#000000" stroke-width="0.350" d="M265.110 198.596L264.792 196.621" />
<path fill="none" stroke="#000000" stroke-width="0.350" d="M262.630 198.974L262.341 196.995" />
<path fill="none" stroke="#000000" stroke-width="0.350" d="M260.146 199.332L259.865 197.351" />
<path fill="none" stroke="#000000" stroke-width="0.350" d="M257.662 199.682L257.384 197.702" />
<path fill="none" stroke="#000000" stroke-width="0.350" d="M255.178 200.030L254.901 198.049" />
<path fill="none" stroke="#000000" stroke-width="0.350" d="M252.693 200.376L252.417 198.395" />
<path fill="none" stroke="#000000" stroke-width="0.350" d="M250.208 200.723L249.931 198.743" />
<path fill="none" stroke="#000000" stroke-width="0.350" d="M247.724 201.072L247.445 199.091" />
<path fill="none" stroke="#000000" stroke-width="0.350" d="M245.240 201.424L244.958 199.444" />
<path fill="none" stroke="#000000" stroke-width="0.350" d="M242.756 201.781L242.470 199.801" />
<path fill="none" stroke="#000000" stroke-width="0.350" d="M240.275 202.147L239.979 200.169" />
<path fill="none" stroke="#000000" stroke-width="0.350" d="M237.796 202.531L237.480 200.556" />
<path fill="none" stroke="#000000" stroke-width="0.350" d="M235.327 202.978L235.021 201.001" />
<path fill="none" stroke="#000000" stroke-width="0.350" d="M232.836 203.264L232.673 201.271" />
<path fill="none" stroke="#000000" stroke-width="0.350" d="M230.333 203.442L230.218 201.445" />
<path fill="none" stroke="#000000" stroke-width="0.350" d="M227.828 203.567L227.746 201.569" />
<path fill="none" stroke="#000000" stroke-width="0.350" d="M225.320 203.655L225.266 201.656" />
<path fill="none" stroke="#000000" stroke-width="0.350" d="M222.812 203.707L222.785 201.707" />
<path fill="none" stroke="#000000" stroke-width="0.350" d="M220.303 203.723L220.306 201.723" />
<path fill="none" stroke="#000000" stroke-width="0.350" d="M217.795 203.696L217.834 201.696" />
<path fill="none" stroke="#000000" stroke-width="0.350" d="M215.287 203.613L215.377 201.615" />
<path fill="none" stroke="#000000" stroke-width="0.350" d="M212.785 203.446L212.957 201.453" />
<path fill="none" stroke="#000000" stroke-width="0.350" d="M210.301 203.104L210.675 201.140" />
<path fill="none" stroke="#000000" stroke-width="0.350" d="M208.019 202.111L208.983 200.359" />
<path fill="none" stroke="#000000" stroke-width="0.350" d="M205.806 200.927L206.753 199.166" />
<path fill="none" stroke="#000000" stroke-width="0.350" d="M203.623 199.693L204.661 197.984" />
<path fill="none" stroke="#000000" stroke-width="0.350" d="M201.543 198.291L202.751 196.697" />
<path fill="none" stroke="#000000" stroke-width="0.350" d="M199.682 196.614L201.145 195.250" />
<path fill="none" stroke="#000000" stroke-width="0.350" d="M198.262 194.556L200.042 193.644" />
<path fill="none" stroke="#000000" stroke-width="0.350" d="M197.512 192.168L199.467 191.747" />
<path fill="none" stroke="#000000" stroke-width="0.350" d="M197.039 189.705L199.013 189.381" />
<path fill="none" stroke="#000000" stroke-width="0.350" d="M196.662 187.225L198.644 186.954" />
<path fill="none" stroke="#000000" stroke-width="0.350" d="M196.343 184.737L198.329 184.502" />
<path fill="none" stroke="#000000" stroke-width="0.350" d="M196.066 182.243L198.056 182.038" />
<path fill="none" stroke="#000000" stroke-width="0.350" d="M195.826 179.746L197.818 179.568" />
<path fill="none" stroke="#000000" stroke-width="0.350" d="M195.619 177.245L197.613 177.093" />
<path fill="none" stroke="#000000" stroke-width="0.350" d="M195.446 174.742L197.442 174.618" />
<path fill="none" stroke="#000000" stroke-width="0.350" d="M195.311 172.237L197.309 172.144" />
<path fill="none" stroke="#000000" stroke-width="0.350" d="M195.222 169.730L197.222 169.677" />
<path fill="none" stroke="#000000" stroke-width="0.350" d="M195.198 167.221L197.197 167.228" />
<path fill="none" stroke="#000000" stroke-width="0.350" d="M195.285 164.715L197.281 164.838" />
<path fill="none" stroke="#000000" stroke-width="0.350" d="M195.681 162.242L197.624 162.714" />
<path fill="none" stroke="#000000" stroke-width="0.350" d="M196.299 159.810L198.231 160.326" />
<path fill="none" stroke="#000000" stroke-width="0.350" d="M196.959 157.390L198.884 157.930" />
<path fill="none" stroke="#000000" stroke-width="0.350" d="M197.646 154.977L199.566 155.536" />
<path fill="none" stroke="#000000" stroke-width="0.350" d="M198.358 152.571L200.272 153.149" />
<path fill="none" stroke="#000000" stroke-width="0.350" d="M199.093 150.173L201.002 150.770" />
<path fill="none" stroke="#000000" stroke-width="0.350" d="M199.855 147.782L201.757 148.402" />
<path fill="none" stroke="#000000" stroke-width="0.350" d="M200.651 145.404L202.543 146.053" />
<path fill="none" stroke="#000000" stroke-width="0.350" d="M201.493 143.040L203.370 143.732" />
<path fill="none" stroke="#000000" stroke-width="0.350" d="M202.408 140.705L204.256 141.470" />
<path fill="none" stroke="#000000" stroke-width="0.350" d="M203.490 138.442L205.237 139.415" />
<path fill="none" stroke="#000000" stroke-width="0.350" d="M205.332 136.804L206.463 138.453" />
<path fill="none" stroke="#000000" stroke-width="0.350" d="M207.383 135.360L208.551 136.983" />
<path fill="none" stroke="#000000" stroke-width="0.350" d="M209.414 133.886L210.595 135.500" />
<path fill="none" stroke="#000000" stroke-width="0.350" d="M211.435 132.400L212.623 134.008" />
<path fill="none" stroke="#000000" stroke-width="0.350" d="M213.450 130.905L214.644 132.510" />
<path fill="none" stroke="#000000" stroke-width="0.350" d="M215.460 129.405L216.658 131.006" />
<path fill="none" stroke="#000000" stroke-width="0.350" d="M217.467 127.899L218.669 129.498" />
<path fill="none" stroke="#000000" stroke-width="0.350" d="M219.470 126.390L220.677 127.985" />
<path fill="none" stroke="#000000" stroke-width="0.500" d="M240.670 128.700C240.670 128.700 253.220 118.740 264.580 120.630C275.950 122.520 314.350 122.640 314.190 131.280C314.030 139.920 318.030 163.640 316.250 169.010C314.470 174.370 310.670 184.740 308.110 187.100C305.540 189.450 267.820 197.990 266.010 198.430C264.200 198.880 239.170 202.130 235.680 202.910C232.180 203.680 211.650 204.380 208.920 202.640C206.190 200.910 199.750 198.510 198.040 194.040C196.320 189.570 194.450 167.810 195.500 163.030C196.540 158.240 202.190 138.670 204.250 137.500C206.320 136.340 219.470 126.390 219.470 126.390" />
<path fill="none" stroke="#000000" stroke-width="1.000" stroke-dasharray="6.000,6.000" stroke-dashoffset="0.000" d="M195.130 118.370L190.040 114.550" />
<path fill="none" stroke="#000000" stroke-width="1.000" stroke-dasharray="6.000,6.000" stroke-dashoffset="0.000" d="M191.140 113.490C191.140 113.490 195.170 116.450 195.880 116.580" />
<path fill="none" stroke="#000000" stroke-width="1.000" d="M195.880 116.580C195.880 116.580 198.900 115.920 199.510 115.330C200.120 114.740 201.000 112.720 200.880 112.360C200.770 111.990 199.620 109.210 199.270 108.730C198.920 108.240 195.840 105.900 195.840 105.900" />
</g>
<g id="X_aaaaaaa_output/ledena.svg">
</g>
<clipPath id="clip_viewBox">
<path d="M-84.392 -217.869L289.301 -217.869L289.301 42.824L-84.392 42.824z" />
</clipPath>
</defs>
<g transform="scale(1,-1)" fill="#000000" stroke="#000000" stroke-linecap="round" stroke-linejoin="round" stroke-miterlimit="10" fill-rule="evenodd" clip-rule="evenodd" clip-path="url(#clip_viewBox)">
<g fill="#cccccc">
<use x="-48.046" y="-189.522" xlink:href="#I_aaaaaaa_output/ledena.svg" />
</g>
<use x="-19.046" y="-178.522" xlink:href="#F_aaaaaaa_output/ledena.svg" />
<use x="-56.046" y="-189.522" xlink:href="#E_aaaaaaa_output/ledena.svg" />
</g>
</svg>
